<?xml version="1.0" encoding="UTF-8" standalone="no"?>
<!-- Created with Inkscape (http://www.inkscape.org/) -->

<svg
   width="354.85828"
   height="329.5643"
   viewBox="0 0 354.85828 329.5643"
   version="1.1"
   id="svg5"
   sodipodi:docname="logo_light.svg"
   inkscape:version="1.2.2 (732a01da63, 2022-12-09)"
   xmlns:inkscape="http://www.inkscape.org/namespaces/inkscape"
   xmlns:sodipodi="http://sodipodi.sourceforge.net/DTD/sodipodi-0.dtd"
   xmlns="http://www.w3.org/2000/svg"
   xmlns:svg="http://www.w3.org/2000/svg">
  <sodipodi:namedview
     id="namedview7"
     pagecolor="#505050"
     bordercolor="#eeeeee"
     borderopacity="1"
     inkscape:showpageshadow="0"
     inkscape:pageopacity="0"
     inkscape:pagecheckerboard="0"
     inkscape:deskcolor="#505050"
     inkscape:document-units="px"
     showgrid="false"
     inkscape:zoom="2"
     inkscape:cx="-72.5"
     inkscape:cy="219.5"
     inkscape:window-width="2560"
     inkscape:window-height="1369"
     inkscape:window-x="-8"
     inkscape:window-y="-8"
     inkscape:window-maximized="1"
     inkscape:current-layer="layer1" />
  <defs
     id="defs2">
    <clipPath
       clipPathUnits="userSpaceOnUse"
       id="clipPath4976">
      <path
         id="path4978"
         style="fill:#ff0000;fill-opacity:1;fill-rule:nonzero;stroke:none;stroke-width:1.00011"
         d="M 68.714201,157.45814 132.45038,436.8736 310.91329,399.6802 280.67835,267.13212 c -0.14591,0.007 -0.29166,0.0163 -0.43757,0.0231 -0.17384,0.41933 -0.67415,0.78253 -1.52474,0.84476 -1.35196,0.0989 -2.70419,0.20627 -4.05656,0.30041 -0.64842,0.0399 -1.29907,0.0485 -1.94894,0.0695 0.006,0.0311 0.0118,0.0605 0.017,0.0926 0.19328,1.21316 0.41299,2.43083 0.37431,3.66097 -0.0341,0.32604 -0.0493,0.65473 -0.10418,0.97749 -0.1604,0.94352 -0.5536,1.86799 -1.25353,2.52348 -0.23249,0.21772 -0.45341,0.37237 -0.65937,0.47605 -0.0216,0.008 -0.0383,0.0272 -0.0604,0.0326 -0.19362,0.089 -0.37262,0.1268 -0.5316,0.12679 -0.26589,3.3211 -2.17336,4.96612 -4.09015,4.78778 0.0459,0.59479 0.11946,1.18755 0.15537,1.78301 0.46677,7.72649 -6.82534,8.84802 -7.88566,1.80775 -0.75228,-0.33546 -1.4788,-0.94743 -2.08241,-1.86228 -2.08837,2.93333 -6.72379,1.13909 -7.12595,-4.92688 -0.0284,-0.42904 -0.0533,-0.85852 -0.0803,-1.28769 -1.15716,0.516 -2.63113,0.32395 -3.98102,-0.81138 -0.56214,1.19622 -1.47841,2.13237 -3.03633,2.34199 -0.99779,0.13419 -1.79274,0.0439 -2.43083,-0.20672 -0.33813,0.78299 -0.70191,1.55694 -1.10195,2.31354 -2.92201,5.52527 -7.79163,4.2219 -8.05371,-0.0307 -1.57538,0.69978 -2.19084,1.07515 -4.02011,1.36082 -2.48248,0.38787 -4.93205,-0.14127 -7.29042,-0.94321 -1.27379,0.20997 -2.79746,-0.32815 -4.11585,-1.78716 -3.06675,-1.42464 -6.08241,-2.9655 -9.02703,-4.63885 -1.45951,-0.81729 -2.93264,-1.60054 -4.42086,-2.35477 -0.68787,1.04743 -1.90578,1.21116 -3.44812,1.51611 -2.018,0.10734 -4.05229,0.16239 -6.07177,0.0532 0.13705,7.8395 0.3548,15.74117 2.23554,23.42471 1.92313,7.85676 -6.00159,9.50807 -7.92715,1.6521 -2.15698,-8.79776 -2.31738,-17.86096 -2.47509,-26.82724 -0.95576,-0.45213 -1.68475,-0.7967 -2.35874,-1.19356 -0.07,-0.023 -0.16075,-0.0554 -0.23505,-0.0772 -0.24271,0.49391 -0.52342,1.09259 -0.74168,1.52313 -0.65872,1.29958 -1.36521,2.5738 -2.0475,3.86113 -1.13085,1.74037 -2.56394,4.40663 -4.44133,5.5743 -2.99883,1.86506 -5.45854,2.0297 -8.69236,-0.0759 -3.17087,-2.0663 -4.44395,-6.02976 -5.92203,-9.16321 -0.53395,-2.12211 -1.16641,-4.2244 -1.61711,-6.3635 -0.6205,0.17189 -1.24248,0.33968 -1.84001,0.5558 -1.33858,-0.49513 -2.80705,-0.72086 -4.01703,-1.48515 -1.73025,-1.09271 -3.33944,-4.00667 -4.23455,-5.69176 -0.27039,-0.50947 -0.51692,-1.03077 -0.77016,-1.54868 -0.88488,9.8e-4 -1.76852,-0.10306 -2.59194,-0.37954 -1.13717,-0.38184 -1.66282,-1.78876 -2.21016,-2.85958 -0.72833,-1.42531 -0.91312,-5.04263 -1.04744,-6.40207 -0.0228,-0.31445 -0.0426,-0.57427 -0.0642,-0.87627 -1.26829,-1.83275 -2.46444,-3.71161 -3.61394,-5.62072 -0.5205,0.3091 -1.04456,0.57305 -1.5726,0.72248 -3.51408,0.9951 -5.81586,0.37829 -8.22255,-2.37999 -0.47589,-0.54562 -0.76615,-1.21252 -1.0307,-1.89513 -1.60367,-1.22699 -1.46139,-2.75685 -1.7506,-5.17351 -0.013,-1.20784 -0.0325,-2.41734 -0.0512,-3.62612 -2.46782,1.45581 -5.32664,-0.0803 -5.35537,-3.76701 -0.60927,-1.04772 -0.53316,-2.51567 0.37587,-4.05376 -0.81171,-1.03207 -1.28152,-2.6854 -1.05732,-4.94129 0.24552,-2.47064 0.74102,-4.89169 1.34425,-7.28523 -1.50588,1.24996 -2.81727,-0.28969 -1.31337,-1.57774 0.36621,-0.31378 0.62926,-0.71809 0.92055,-1.09754 -0.002,-0.0747 0.007,-0.15844 0.0343,-0.25162 0.0145,-0.0504 0.0337,-0.0995 0.0475,-0.15017 -0.20124,0.0168 -0.24534,-0.12677 -0.14292,-0.37296 -0.22412,-0.041 -0.35053,-0.32397 -0.11463,-0.67742 0.0241,-0.0361 0.0511,-0.0702 0.0756,-0.10592 -0.19265,-0.11626 -0.28006,-0.41383 -0.0818,-0.8045 0.0745,-0.14621 0.14282,-0.2955 0.21403,-0.44336 -0.30528,-0.0736 -0.4469,-0.46674 -0.0677,-0.89157 0.0719,-0.0808 0.12908,-0.1715 0.18769,-0.26153 -0.0956,-0.11226 -0.21678,-0.27268 -0.39816,-0.46004 -0.003,-0.003 0.0794,-0.15324 0.11294,-0.22191 0.0998,-0.21096 0.17979,-0.43146 0.25185,-0.65361 0.0679,-0.22001 0.11294,-0.44566 0.16636,-0.66985 0.0412,-0.1775 0.12021,-0.34141 0.1869,-0.50983 0.0325,-0.16866 0.0735,-0.34288 0.12938,-0.52589 0.16952,-0.55532 0.36886,-1.1016 0.57669,-1.64304 0.1278,-0.33163 0.25584,-0.66189 0.35548,-1.00382 0.11946,-0.43082 0.31212,-0.82637 0.5359,-1.20974 0.19291,-0.25139 0.3561,-0.51643 0.50495,-0.79453 0.19598,-0.47728 0.44542,-0.92723 0.68158,-1.38436 0.27475,-0.497 0.49465,-1.02216 0.72121,-1.5429 0.28488,-0.6465 0.59776,-1.28048 0.93496,-1.90005 0.33871,-0.65524 0.74961,-1.26755 1.13118,-1.89685 0.27215,-0.46694 0.56866,-0.91684 0.8624,-1.36996 0.155,-0.22972 0.31785,-0.45377 0.47475,-0.68203 0.27899,-0.58596 0.55685,-1.17198 0.8223,-1.76435 0.31,-0.72823 0.69026,-1.42105 1.08362,-2.10535 0.25781,-0.45889 0.54202,-0.90272 0.84505,-1.33228 0.59649,-0.84444 1.27174,-1.27434 1.88538,-1.38879 0.65485,-0.12211 1.23952,0.11477 1.58609,0.58716 1.61378,-0.0495 2.4898,1.85025 0.59797,3.71455 -0.2095,0.20645 -0.42137,0.411 -0.62344,0.62485 -0.44281,0.45767 -0.90147,0.90205 -1.3029,1.39764 -0.41052,0.52715 -0.81279,1.06043 -1.2092,1.59853 -0.0973,0.1323 -0.19099,0.26639 -0.28571,0.40018 2.83868,-0.43051 5.27234,2.66419 3.17537,7.42332 -0.71648,1.626 -1.41395,3.261 -2.06641,4.91504 2.45125,-0.17661 4.50055,2.27407 3.37586,6.17729 2.2087,0.74897 3.37362,3.76547 1.00215,7.56767 -1.43118,2.29428 -0.70188,1.11483 -2.18245,3.5406 -0.30107,0.48788 -0.60983,0.97691 -0.92067,1.46426 -0.0343,2.31862 -0.0331,4.63826 0.008,6.9594 0.0335,-0.0121 0.0617,-0.0336 0.0966,-0.0401 2.99081,-0.99182 5.17948,0.23181 6.74994,2.45646 1.23112,-0.80759 2.65916,-1.19795 4.47019,-0.0961 1.87863,1.14502 2.74245,3.51829 3.58316,5.54699 0.6135,1.48048 0.49495,3.15352 0.6797,4.73746 0.0797,0.68321 0.15206,1.64609 0.22819,2.51322 0.27155,0.17074 0.50788,0.40755 0.72845,0.68375 0.53006,-0.74741 0.84182,-0.83874 2.09409,-1.41826 0.021,-0.38598 0.0545,-0.76786 0.28204,-1.05464 0.95489,-1.20375 2.2713,-2.06902 3.40739,-3.1026 0.52714,0.45732 1.09067,0.88352 1.65628,1.3059 0.45011,0.0522 0.89694,0.11174 1.3507,0.16734 5.7534,-2.12615 5.93543,-1.79618 5.76199,0.94114 -0.006,0.24548 -0.005,0.49009 -0.01,0.73541 0.4846,0.3604 0.23057,1.08203 -0.0276,1.8031 -0.015,2.05931 0.0193,4.11749 0.0985,6.17705 1.30529,-0.15061 2.5924,-0.23046 3.72879,0.30891 0.22741,-0.16576 0.46283,-0.32409 0.67976,-0.50034 1.67698,1.56209 3.69537,2.82518 5.03049,4.68631 0.17013,0.23708 0.213,0.51652 0.22204,0.80732 0.4054,0.0782 0.84684,0.24942 1.31583,0.46916 1.02655,-0.18501 2.41618,-0.15409 4.32808,0.13793 0.22238,0.0341 0.45936,0.27914 0.69632,0.63032 0.67541,-1.4873 1.42564,-3.14253 1.57734,-3.41249 0.75755,-1.34662 1.72117,-2.56257 2.58194,-3.84428 2.38309,0.52536 4.97974,0.4371 7.14945,1.57572 0.76851,0.40295 0.53135,1.65759 0.64307,2.51292 0.15217,1.18011 0.12563,2.37405 0.14019,3.56149 0.0205,1.6771 -0.0217,3.35322 -0.0476,5.0293 1.95552,0.68492 3.87515,1.49814 5.79066,2.27367 1.29046,0.50889 2.55736,1.06623 3.81575,1.64332 2.05585,0.31637 4.11239,0.63767 6.15072,1.0625 0.37073,0.0776 0.74122,0.15632 1.11234,0.23306 0.0956,0.0197 0.23358,0.007 0.36316,4.4e-4 -0.74051,-3.43662 0.70123,-5.59784 2.62618,-5.94141 1.87673,-0.33491 4.20609,1.05474 5.39366,4.66071 0.17518,0.53205 0.35049,1.06403 0.52555,1.59566 3.77671,-0.24076 7.55231,-0.49828 11.33336,-0.68485 1.14382,-0.052 2.28654,-0.1208 3.43122,-0.15605 0.61107,-0.0189 1.61796,-0.0638 2.66256,-0.0279 0.0937,-0.40825 0.18818,-0.81883 0.28306,-1.22516 0.68098,-2.69555 0.9894,-4.66694 2.53615,-5.00692 1.20275,-0.26452 3.15327,0.45803 6.61251,2.59731 0.40302,0.24937 0.49144,0.69082 0.47418,1.19559 0.27585,0.0454 0.54536,0.0872 0.84526,0.14644 1.22624,0.242 1.44944,2.06164 2.06444,3.15645 0.0296,0.0526 0.24812,0.56909 0.34714,0.78726 -0.019,-0.41681 -0.0411,-0.83318 -0.0597,-1.24991 -0.16893,-3.77314 1.52662,-5.82187 3.41306,-6.10338 1.3931,-0.20796 2.84944,0.61798 3.76982,2.3602 0.42632,-0.87286 1.21683,-1.71381 2.42226,-2.38432 -9e-5,-10e-4 -7.2e-4,-0.002 -8.8e-4,-0.004 -0.15921,-0.77407 0.12429,-1.56585 0.18623,-2.34914 0.1088,-1.37707 0.53089,-2.02488 1.13646,-2.18849 1.13749,-0.30723 2.91799,1.09356 4.48071,2.56472 0.42983,-0.12611 0.86065,-0.24934 1.2912,-0.3733 -0.11045,-0.0755 -0.23177,-0.1441 -0.37528,-0.20232 -0.17936,-0.005 -0.3543,-0.016 -0.52079,-0.0357 -0.15942,-0.0189 -0.28416,-0.15453 -0.4259,-0.23183 0.40098,0.0858 0.7015,0.16813 0.94669,0.26756 0.40612,0.0113 0.83911,-0.0169 1.27168,-0.0566 1.47289,-0.41901 2.95422,-0.81251 4.43254,-1.21433 -0.32342,-1.40438 -0.52133,-2.84498 -0.71384,-4.25746 -0.30375,-2.87515 -0.29782,-5.76377 -0.40626,-8.64564 -0.0138,-1.41787 -0.17038,-2.81876 -0.61922,-4.17498 -0.45363,-1.31369 -1.06514,-2.57057 -1.68593,-3.81442 -1.14264,-2.25954 -2.2547,-4.53492 -3.32126,-6.82987 -0.9252,-1.99914 -1.72298,-4.04843 -2.43147,-6.12966 -0.75064,-2.03504 -1.06803,-4.15878 -1.19212,-6.30178 0.0109,-2.22111 0.10121,-4.43805 0.0485,-6.66054 -0.0386,-1.61695 -0.22461,-3.22629 -0.63963,-4.7979 -0.38284,-1.03594 -0.75642,-2.08116 -1.2277,-3.08236 -0.52659,-1.06491 -1.16582,-2.06168 -1.81232,-3.05673 -0.89201,-1.16272 -1.57064,-2.45945 -2.20303,-3.77277 -0.84238,-1.77418 -1.71756,-3.5329 -2.58446,-5.29626 -0.68171,-1.28487 -1.33175,-2.58618 -2.04784,-3.85321 -0.92714,-1.35749 -2.1201,-2.52304 -3.26506,-3.69771 -1.74842,-1.71957 -3.45701,-3.47607 -5.08501,-5.31013 -1.41794,-1.57625 -2.60693,-3.33036 -3.75883,-5.10162 -0.89049,-1.38379 -1.54468,-2.89128 -2.2204,-4.38229 -0.44036,-0.97258 -0.76228,-1.99101 -1.2389,-2.94779 -0.40807,-0.77623 -1.03303,-1.41308 -1.67571,-2.00316 -1.63692,-1.42107 -3.42412,-2.65548 -5.17633,-3.92655 -1.5936,-1.15782 -3.24268,-2.24093 -4.89012,-3.31896 -1.06837,-0.67662 -2.08243,-1.41822 -3.02553,-2.26284 -0.7395,-0.63556 -1.43512,-1.3186 -2.11731,-2.01533 -0.41797,-0.27319 -1.04287,-1.29229 -1.50486,-1.4116 -1.66494,-0.86597 -3.37118,-1.65065 -5.06748,-2.45243 -1.58016,-0.73898 -3.16033,-1.48393 -4.78142,-2.12534 -1.82762,-0.69634 -3.6792,-1.3327 -5.54715,-1.90565 -1.10848,-0.37533 -2.24509,-0.44003 -3.39419,-0.49485 -1.82427,-0.0229 -3.64563,0.0451 -5.46794,0.0856 -1.3413,-0.008 -2.67326,0.12297 -4.00895,0.19432 -0.98469,0.023 -1.96126,0.12092 -2.93352,0.2567 -0.8907,0.1291 -1.77659,0.29044 -2.66013,0.45827 -0.45431,0.11387 -0.95203,0.13163 -1.35873,0.38341 -0.43446,0.16235 -0.78895,0.43928 -1.15145,0.71485 -0.48513,0.48635 -1.03778,0.93457 -1.58178,1.35558 -0.68093,0.53262 -1.45376,0.92548 -2.22745,1.30579 -3.39198,1.66729 -5.95379,0.87085 -7.00896,-0.76743 -0.0535,0.0275 -0.1068,0.058 -0.16048,0.0835 -0.77809,0.70144 -1.56944,1.38899 -2.32126,2.11884 -0.74426,0.72034 -1.48112,1.44964 -2.25203,2.14247 -0.5211,0.52293 -1.02871,1.06401 -1.66246,1.45654 -0.48705,0.3449 -0.99844,0.66556 -1.4317,1.07783 -0.54642,0.50773 -1.03496,1.06983 -1.52232,1.63373 -0.38566,0.45383 -0.77206,0.92185 -1.04893,1.45291 -0.28111,0.53939 -0.6093,0.90015 -0.94836,1.18549 -0.078,0.12666 -0.15664,0.25285 -0.23457,0.37951 -1.67184,2.71429 -4.44971,0.96912 -2.77784,-1.74542 0.0641,-0.10404 0.12771,-0.20849 0.19202,-0.31252 0.0581,-0.37021 0.17747,-0.77108 0.39122,-1.20564 0.39732,-0.80821 0.96145,-1.51474 1.53447,-2.20131 0.0193,-0.0226 0.0406,-0.0433 0.061,-0.0648 -0.0201,0.0134 -0.0405,0.027 -0.0605,0.0406 -0.22246,0.14971 -0.44458,0.30018 -0.65585,0.46529 -0.15592,0.12863 -0.29367,0.27595 -0.43218,0.4227 -0.24223,0.25556 -0.48384,0.51399 -0.72354,0.77195 -0.24004,0.26578 -0.48748,0.5224 -0.74067,0.77553 -0.0308,0.0321 -0.0633,0.0657 -0.0934,0.0976 -0.12624,0.13164 -0.24442,0.15158 -0.36625,0.20456 -0.005,0.006 -0.009,0.0125 -0.0137,0.0188 -0.31243,0.43725 -0.67456,0.83422 -1.04344,1.22334 -0.381,0.37934 -0.75633,0.76275 -1.11247,1.16559 -0.28925,0.33056 -0.58084,0.66066 -0.85145,1.007 -0.6933,0.88751 -1.60563,0.1659 -0.91024,-0.71999 0.002,-0.004 0.003,-0.003 0.008,-0.01 -0.0502,-0.17971 -0.0116,-0.42902 0.1641,-0.72349 0.15855,-0.26578 0.37647,-0.48862 0.5877,-0.71158 0.33865,-0.35756 0.25466,-0.26646 0.628,-0.63984 0.62792,-0.60182 1.27829,-1.17894 1.94025,-1.74286 0.19705,-0.27188 0.38997,-0.54707 0.60424,-0.8052 0.36869,-0.44201 0.75752,-0.86547 1.14343,-1.29226 0.3293,-0.36197 0.66023,-0.72405 1.02487,-1.05117 0.41348,-0.36363 0.84851,-0.7007 1.28301,-1.03882 0.44485,-0.34766 0.89025,-0.69651 1.31118,-1.07276 0.30676,-0.28271 0.60789,-0.57271 0.91109,-0.85913 0.16825,-0.15855 0.33325,-0.31874 0.5122,-0.46543 0.19755,-0.15567 0.39341,-0.31305 0.59698,-0.46104 0.34339,-0.2587 0.68819,-0.51842 1.04011,-0.76579 0.27989,-0.19483 0.5649,-0.38117 0.85906,-0.55374 0.11595,-0.10747 0.22957,-0.21723 0.34725,-0.32284 0.22074,-0.20223 0.44171,-0.40443 0.65593,-0.61358 0.21007,-0.20112 0.42314,-0.39779 0.6468,-0.58364 0.2446,-0.19311 0.49864,-0.37474 0.75614,-0.55032 0.29822,-0.18989 0.58927,-0.39046 0.88066,-0.5903 0.34356,-0.23276 0.67769,-0.47835 1.01455,-0.72039 0.47554,-0.34352 0.95766,-0.6776 1.44125,-1.0097 0.39112,-0.26822 0.79465,-0.51933 1.19942,-0.76693 0.22944,-0.46366 0.66296,-0.91758 1.4463,-1.24118 0.49533,-0.2046 0.99375,-0.40126 1.49829,-0.58478 0.30762,-0.22 0.61818,-0.43578 0.93434,-0.64355 z M 190.594,132.05721 c 0.25611,-0.007 0.51122,-0.0291 0.76806,-0.0258 2.01166,-0.0438 4.02392,-0.12277 6.03813,-0.0782 1.83319,0.0883 3.65363,0.27878 5.42007,0.8501 2.07725,0.64185 4.13794,1.34313 6.16957,2.12458 1.78178,0.71149 3.52542,1.51524 5.26182,2.33379 2.10832,0.99727 4.25952,1.93586 6.26039,3.14359 0.988,0.72555 1.87919,1.53414 2.71498,2.43176 0.56671,0.57876 1.14091,1.15238 1.76188,1.67262 0.6059,0.5664 1.29579,1.00397 1.98654,1.45949 1.75704,1.15267 3.51778,2.30656 5.21704,3.54537 2.0628,1.49621 4.16739,2.94941 6.06065,4.66398 1.33194,1.30631 2.59938,2.69684 3.41201,4.39443 0.49112,1.02849 0.90236,2.08677 1.33086,3.14102 0.50204,1.10871 0.97299,2.23624 1.61501,3.27616 0.92515,1.42316 1.86094,2.84332 3.00187,4.10923 1.53944,1.73892 3.16792,3.3952 4.82085,5.02655 1.64619,1.69408 3.33743,3.38985 4.55886,5.4258 0.78932,1.40474 1.51904,2.84215 2.26626,4.26854 0.87943,1.789 1.76887,3.57173 2.62373,5.37225 0.46822,0.98504 0.98066,1.94193 1.65748,2.80645 L 247.1771,120.26476 Z m 77.94282,81.84718 c 0.0573,1.32167 0.28308,2.6224 0.74458,3.87635 0.11609,0.34236 0.25,0.67826 0.37195,1.01853 z m -101.52109,54.24378 c 0.0569,0.24033 0.11775,0.4804 0.17272,0.7214 0.49991,1.20233 0.9808,2.41278 1.49897,3.60692 0.23889,0.54984 0.77794,1.02994 0.7715,1.62455 -0.004,0.35727 -0.61858,0.39358 -0.79795,0.69931 -0.0963,0.1642 -0.13021,0.64107 0.0513,0.5744 1.18133,-0.43968 2.49216,-2.91634 2.92299,-3.56471 0.36613,-0.68894 0.72953,-1.37999 1.09806,-2.06827 -1.17135,-0.13218 -2.33371,-0.33712 -3.47575,-0.68625 -0.76683,-0.2344 -1.54859,-0.50002 -2.24161,-0.9074 z M 235.6005,263.795 c -0.17711,0.0967 -0.35861,0.18991 -0.57115,0.4256 0.0668,-0.0108 0.13437,-0.0162 0.20109,-0.0279 0.14524,-0.0251 0.18936,-0.0647 0.29917,-0.0964 0.0231,-0.10063 0.0479,-0.20065 0.0709,-0.30131 z m 34.07998,1.4614 c -0.0675,0.0475 -0.14662,0.084 -0.21122,0.13215 0.009,0.0421 0.0155,0.0857 0.0249,0.12706 0.11232,-0.046 0.23439,-0.0865 0.36977,-0.11913 0.0645,-0.0155 0.13213,-0.0296 0.20184,-0.0421 0.0115,-0.002 0.0233,-0.003 0.0348,-0.005 -0.13962,-0.0311 -0.2852,-0.0581 -0.42011,-0.0928 z" />
    </clipPath>
    <clipPath
       clipPathUnits="userSpaceOnUse"
       id="clipPath5155">
      <path
         id="path5157"
         style="fill:#ff0000;fill-opacity:1;fill-rule:nonzero;stroke:none;stroke-width:1.00041"
         d="m 140.76209,81.297195 82.88751,5.832171 c -0.0298,0.03345 -0.0623,0.06394 -0.093,0.09702 -0.0958,-0.0035 -0.20752,0.01784 -0.33121,0.07635 -0.047,0.02222 -0.0918,0.04875 -0.13915,0.07033 -0.0186,-0.202481 -0.16724,-0.223792 -0.39105,-0.08418 -0.0793,-0.215892 -0.3791,-0.298936 -0.68502,-0.0091 -0.0312,0.02948 -0.0599,0.06204 -0.0908,0.09131 -0.14767,-0.173158 -0.45508,-0.214894 -0.80406,0.04308 -0.13052,0.09643 -0.26522,0.187324 -0.39799,0.280726 -0.12545,-0.291416 -0.53581,-0.370222 -0.8871,0.07045 -0.0669,0.0838 -0.1459,0.154504 -0.22408,0.226527 -0.12686,-0.07746 -0.30561,-0.172887 -0.52097,-0.323893 -0.003,-0.0021 -0.13664,0.102382 -0.1982,0.146282 -0.18972,0.131584 -0.39228,0.244918 -0.59783,0.350686 -0.20418,0.1013 -0.418,0.180893 -0.62867,0.268403 -0.16708,0.06831 -0.3142,0.171926 -0.46798,0.264078 -0.15988,0.05828 -0.32379,0.125818 -0.49378,0.209505 -0.51563,0.253855 -1.01743,0.535926 -1.51264,0.825619 -0.30344,0.177883 -0.60531,0.355926 -0.92361,0.50753 -0.40234,0.185022 -0.75684,0.437182 -1.09436,0.718271 -0.21322,0.230202 -0.44484,0.432887 -0.6921,0.623474 -0.43445,0.267997 -0.83278,0.58492 -1.24044,0.889713 -0.4401,0.349293 -0.91732,0.648397 -1.38918,0.953499 -0.58507,0.382288 -1.15295,0.790338 -1.70258,1.220637 -0.58422,0.437077 -1.11387,0.93921 -1.66528,1.414752 -0.41104,0.342008 -0.80171,0.705565 -1.1948,1.06683 -0.19855,0.189203 -0.39016,0.385306 -0.58693,0.576162 -0.52665,0.367154 -1.05374,0.733284 -1.58898,1.087943 -0.66108,0.419904 -1.27494,0.903888 -1.87826,1.39977 -0.4057,0.32655 -0.79201,0.67672 -1.16083,1.04382 -0.72542,0.7214 -1.02966,1.45806 -1.03517,2.08436 -0.006,0.66834 0.3285,1.21167 0.85261,1.48249 0.23235,1.60825 2.24999,2.18265 3.75089,0.0197 0.16621,-0.23967 0.33014,-0.48138 0.5049,-0.71481 0.37209,-0.50982 0.72862,-1.03335 1.14528,-1.508 0.44614,-0.48881 0.8994,-0.96983 1.35882,-1.44609 0.11281,-0.11686 0.22826,-0.23055 0.34313,-0.34516 0.0716,2.88233 3.53354,4.81804 7.84077,2.00351 1.4717,-0.96164 2.95541,-1.90581 4.46556,-2.80827 0.25358,2.45727 3.01414,4.11148 6.6464,2.3982 1.11951,2.07593 4.29049,2.76175 7.61006,-0.17774 2.00351,-1.77368 0.97206,-0.86821 3.09601,-2.711185 0.42663,-0.373917 0.85307,-0.755288 1.27723,-1.139189 2.27081,-0.392074 4.54992,-0.738243 6.83376,-1.066717 -0.006,0.0351 -0.0174,0.06627 -0.0226,0.101972 -0.45267,3.119309 1.1298,5.101459 3.58692,6.315609 -0.57857,1.34484 -0.71459,2.82349 0.68403,4.4485 1.4503,1.68703 3.93135,2.17787 6.06967,2.69761 1.56038,0.37992 3.18216,0.004 4.76937,-0.0572 0.68462,-0.0264 1.64201,-0.10321 2.5071,-0.16164 0.21492,0.24297 0.48878,0.44167 0.79811,0.61695 -0.64128,0.64106 -0.67665,0.96437 -1.02777,2.29592 -0.37505,0.0804 -0.74437,0.17261 -0.98629,0.44255 -1.01538,1.1329 -1.63559,2.57299 -2.45271,3.85849 0.54096,0.453 1.05728,0.94544 1.57046,1.44118 0.12965,0.43858 0.26588,0.87235 0.39947,1.31382 -1.0856,6.03576 -0.7299,6.16335 1.92724,5.56966 0.23988,-0.0443 0.48034,-0.0804 0.72029,-0.12323 0.43812,0.42432 1.10233,0.0617 1.7654,-0.30566 2.01977,-0.33294 4.0457,-0.61571 6.0815,-0.85587 0.0794,1.31864 0.22496,2.60661 0.95252,3.65065 -0.12319,0.25088 -0.23773,0.50952 -0.37285,0.75144 1.8254,1.42196 3.41719,3.2283 5.4767,4.26598 0.26258,0.13206 0.54442,0.13155 0.83125,0.0956 0.14731,0.3899 0.39223,0.80152 0.68971,1.23264 -0.003,1.04669 0.26922,2.42001 0.88901,4.27144 0.0722,0.21548 0.35414,0.41259 0.74007,0.59333 -1.34283,0.89899 -2.83702,1.89874 -3.07559,2.09125 -1.19022,0.95833 -2.21621,2.10246 -3.32458,3.15429 0.93069,2.28166 1.29606,4.87132 2.79181,6.8478 0.52969,0.70054 1.71991,0.26993 2.57905,0.2499 1.18465,-0.0315 2.35343,-0.24221 3.52091,-0.41075 1.65008,-0.23865 3.28812,-0.53896 4.92925,-0.82361 1.01255,1.83341 2.14601,3.61286 3.24044,5.39238 0.72406,1.20198 1.49203,2.37145 2.27773,3.53091 0.66905,1.99044 1.34146,3.98052 2.11407,5.93646 0.14079,0.35579 0.28272,0.71166 0.42247,1.06728 0.036,0.0918 0.0476,0.23066 0.0637,0.36011 -3.50173,-0.20387 -5.37364,1.55965 -5.37573,3.52191 -0.002,1.91318 1.76837,4.00863 5.51481,4.63015 0.55278,0.0916 1.10537,0.18331 1.65805,0.27493 0.42094,3.7829 0.82573,7.56832 1.30099,11.34651 0.14799,1.14176 0.27963,2.28643 0.44423,3.42729 0.0878,0.60901 0.21901,1.6141 0.43619,2.64513 -0.38445,0.15592 -0.77109,0.31275 -1.15354,0.46985 -2.5269,1.09132 -4.40947,1.70142 -4.47398,3.28836 -0.0503,1.23299 0.99948,3.05649 3.70128,6.15756 0.31488,0.36099 0.76397,0.38107 1.25635,0.28575 0.0926,0.26674 0.18059,0.5275 0.29094,0.81575 0.45092,1.17803 2.27616,1.11937 3.45832,1.56032 0.0568,0.0212 0.60265,0.15874 0.83333,0.22276 -0.41233,0.0456 -0.82511,0.0879 -1.2375,0.13374 -3.73385,0.41424 -5.44986,2.41357 -5.39775,4.32734 0.0384,1.41468 1.10217,2.7308 2.97354,3.3747 -0.78276,0.55777 -1.47078,1.47085 -1.91908,2.77055 -0.001,-6e-5 -0.002,-1.8e-4 -0.004,-2.9e-4 -0.78766,-0.0384 -1.51561,0.36519 -2.27384,0.54735 -1.33332,0.32007 -1.8956,0.83975 -1.95069,1.46501 -0.10358,1.17579 1.58146,2.72492 3.29809,4.0482 -0.049,0.4459 -0.0949,0.8921 -0.14166,1.33829 -0.0934,-0.0979 -0.1818,-0.20769 -0.26397,-0.34098 -0.036,-0.17708 -0.0774,-0.34987 -0.12576,-0.51103 -0.0463,-0.15521 -0.20119,-0.25799 -0.30176,-0.38663 0.15403,0.38451 0.28714,0.66976 0.42752,0.89766 0.0818,0.40036 0.12951,0.83497 0.16582,1.27003 -0.15486,1.52558 -0.28294,3.05536 -0.42039,4.58378 -1.43512,-0.10398 -2.88407,-0.0779 -4.30407,-0.0508 -2.87583,0.14251 -5.71081,0.59434 -8.55863,0.93168 -1.39438,0.20518 -2.79707,0.2676 -4.20663,0.0303 -1.36864,-0.24724 -2.71045,-0.65981 -4.03837,-1.08333 -2.41737,-0.78456 -4.84436,-1.53625 -7.28355,-2.23981 -2.12378,-0.60899 -4.2756,-1.08395 -6.44117,-1.46538 -2.12932,-0.4303 -4.26892,-0.41734 -6.39438,-0.20959 -2.17876,0.35364 -4.33962,0.78461 -6.53056,1.07633 -1.59413,0.21128 -3.20672,0.27479 -4.82174,0.10624 -1.08409,-0.21992 -2.17474,-0.42938 -3.23989,-0.74186 -1.13707,-0.35772 -2.2271,-0.83737 -3.3165,-1.32565 -1.29729,-0.70499 -2.68835,-1.17815 -4.08752,-1.60263 -1.88918,-0.56158 -3.76774,-1.15854 -5.64964,-1.74578 -1.38011,-0.47763 -2.77116,-0.92145 -4.13947,-1.4363 -1.49449,-0.7091 -2.84646,-1.71329 -4.19874,-2.66757 -1.99323,-1.46894 -4.01458,-2.89212 -6.09864,-4.22376 -1.79435,-1.16308 -3.72283,-2.07094 -5.66302,-2.94061 -1.51302,-0.66905 -3.1079,-1.08668 -4.68894,-1.52575 -1.0315,-0.28668 -2.08744,-0.44864 -3.10972,-0.77374 -0.83312,-0.28491 -1.56719,-0.80635 -2.25839,-1.3528 -1.67949,-1.40379 -3.20314,-2.98618 -4.7562,-4.52791 -1.41455,-1.40178 -2.76482,-2.87008 -4.10985,-4.33784 -0.85061,-0.95537 -1.75488,-1.8466 -2.74837,-2.6515 -0.75266,-0.63542 -1.54459,-1.21939 -2.34721,-1.78893 -0.34117,-0.37179 -1.45059,-0.83515 -1.64786,-1.27465 -1.14007,-1.51753 -2.20675,-3.08914 -3.29005,-4.64751 -0.99896,-1.45263 -2.00707,-2.90554 -2.91908,-4.41428 -1.00172,-1.70536 -1.94938,-3.44393 -2.83672,-5.20767 -0.56147,-1.04151 -0.82295,-2.1587 -1.07683,-3.29007 -0.33931,-1.80597 -0.59049,-3.62279 -0.86802,-5.4365 -0.24147,-1.329 -0.34474,-2.67041 -0.50727,-4.0062 -0.14889,-0.97955 -0.22287,-1.96335 -0.25875,-2.94919 -0.0283,-0.90377 -0.0234,-1.80736 -0.0133,-2.70914 0.0327,-0.46864 -0.0365,-0.96468 0.13983,-1.40682 0.0838,-0.45647 0.2939,-0.85032 0.50133,-1.25239 0.39298,-0.55687 0.73639,-1.17312 1.05542,-1.77813 0.40428,-0.75771 0.65558,-1.58473 0.89413,-2.41083 1.04632,-3.62129 -0.18235,-6.03987 -1.9738,-6.83323 0.0176,-0.0573 0.0419,-0.11445 0.054,-0.17207 0.553,-0.88011 1.09036,-1.77107 1.67599,-2.62938 0.57755,-0.84871 1.16531,-1.6934 1.71126,-2.56436 0.42261,-0.59726 0.8661,-1.18436 1.1405,-1.87374 0.25455,-0.53603 0.48016,-1.09281 0.80889,-1.58639 0.40344,-0.6202 0.87021,-1.19149 1.33886,-1.76207 0.37832,-0.45315 0.77058,-0.90807 1.24377,-1.26466 0.48058,-0.36218 0.77763,-0.74326 0.99873,-1.12361 0.11054,-0.0969 0.22152,-0.19417 0.33173,-0.29125 2.37445,-2.07695 0.17666,-4.56287 -2.19723,-2.48571 -0.091,0.0796 -0.18184,0.15919 -0.2734,0.23869 -0.35276,0.11497 -0.72604,0.29514 -1.11551,0.57415 -0.72427,0.51886 -1.31963,1.18733 -1.89397,1.86175 -0.0187,0.0228 -0.0355,0.047 -0.053,0.0705 0.01,-0.022 0.022,-0.0415 0.0293,-0.0664 0.1084,-0.24394 0.21731,-0.48728 0.34262,-0.72232 0.0991,-0.17449 0.21981,-0.33387 0.33973,-0.4939 0.20873,-0.2797 0.42037,-0.55889 0.63188,-0.8368 0.21912,-0.27875 0.42798,-0.56415 0.63241,-0.85432 0.0261,-0.0355 0.0535,-0.0723 0.0796,-0.10774 0.10727,-0.14548 0.10626,-0.26578 0.13707,-0.39483 0.005,-0.006 0.011,-0.01 0.0161,-0.0165 0.37459,-0.37743 0.70152,-0.79783 1.01933,-1.22377 0.30607,-0.43648 0.61718,-0.86762 0.95063,-1.28332 0.27421,-0.33762 0.54746,-0.67809 0.84037,-0.99992 0.75058,-0.82472 -0.11668,-1.61816 -0.86535,-0.79168 -0.003,0.003 -0.005,0.0149 -0.008,0.009 -0.18545,-0.0221 -0.42321,0.0549 -0.68172,0.27443 -0.23349,0.19844 -0.41428,0.44906 -0.59627,0.69274 -0.29204,0.39108 -0.21755,0.29384 -0.51881,0.72164 -0.48169,0.7159 -0.93466,1.44963 -1.37325,2.19346 -0.23216,0.23723 -0.469,0.47103 -0.68529,0.72361 -0.36965,0.43363 -0.71748,0.88507 -1.0696,1.33355 -0.29789,0.3827 -0.59587,0.76661 -0.85353,1.17877 -0.28477,0.46634 -0.54007,0.94994 -0.79649,1.4329 -0.26356,0.49502 -0.52854,0.99031 -0.82488,1.46608 -0.2239,0.34769 -0.45646,0.69134 -0.68481,1.03628 -0.12647,0.19109 -0.25502,0.37992 -0.36774,0.57985 -0.11848,0.22001 -0.23857,0.43866 -0.3487,0.66327 -0.1941,0.38029 -0.38913,0.76263 -0.57071,1.14983 -0.14255,0.30768 -0.2759,0.61913 -0.39406,0.93754 -0.0853,0.13126 -0.17304,0.26136 -0.25649,0.39423 -0.16013,0.25025 -0.32024,0.5003 -0.48818,0.7453 -0.1611,0.23922 -0.31681,0.48103 -0.46037,0.73162 -0.1471,0.27213 -0.28121,0.55218 -0.40862,0.83491 -0.13474,0.32491 -0.28062,0.64493 -0.4262,0.96458 -0.16845,0.37692 -0.35135,0.7461 -0.5306,1.11747 -0.25423,0.52483 -0.49835,1.05416 -0.74032,1.58536 -0.19496,0.42918 -0.3713,0.86808 -0.54411,1.30802 -0.41519,0.29908 -0.78537,0.79913 -0.9667,1.62607 -0.11552,0.5266 -0.22266,1.05554 -0.31552,1.58789 -0.22445,0.46964 -0.41522,0.95532 -0.61644,1.43579 -0.54804,0.57265 -0.80222,1.15275 -0.83247,1.65507 -0.0104,0.17923 0.008,0.34746 0.0497,0.50373 -0.10033,0.35641 -0.17894,0.70266 -0.18661,1.00685 -0.002,0.065 0.0288,0.10802 0.0282,0.17003 0.002,0.27764 0.0444,0.52877 0.12259,0.74918 0.0109,0.0322 0.007,0.0776 0.0183,0.10876 -0.002,0.01 -0.008,0.0282 -0.0111,0.0363 -0.21504,1.01806 -0.3686,2.0506 -0.3411,3.10433 -0.0114,1.0348 -0.015,2.06977 0.0191,3.10623 0.0472,1.22248 0.13633,2.44377 0.31589,3.66056 0.18512,1.4087 0.27578,2.8265 0.53978,4.22929 0.30739,2.00074 0.58009,4.01045 0.97458,6.00086 0.40569,1.8049 0.9095,3.58081 1.77832,5.24457 0.99211,1.9613 2.03938,3.89732 3.16004,5.79121 1.00873,1.65775 2.10202,3.26222 3.20739,4.85858 1.34612,1.93718 2.64258,3.9265 4.17627,5.72398 0.88486,0.86822 1.83409,1.62724 2.86013,2.31742 0.66687,0.47282 1.33072,0.95372 1.94887,1.48929 0.66195,0.51295 1.21082,1.13021 1.77876,1.74502 1.43709,1.56438 2.8772,3.13349 4.38905,4.62713 1.82841,1.81456 3.62157,3.67801 5.63414,5.29117 1.51499,1.1193 3.10038,2.16247 4.90836,2.70577 1.09448,0.32838 2.20579,0.57324 3.31543,0.83512 1.1759,0.32698 2.36555,0.62013 3.4976,1.09608 1.55806,0.698 3.11653,1.40696 4.55692,2.34301 1.97554,1.25851 3.88497,2.61821 5.77424,4.00554 1.94977,1.37062 3.90944,2.78681 6.12058,3.68405 1.51711,0.56569 3.05445,1.06779 4.58527,1.58881 1.90936,0.59628 3.81476,1.20305 5.73106,1.77299 1.05883,0.31525 2.09777,0.67748 3.07281,1.22448 1.45515,0.6502 2.92118,1.2738 4.44384,1.73517 1.56132,0.43948 3.14755,0.7874 4.74496,1.02559 2.22975,0.196 4.45747,0.16923 6.6574,-0.14122 2.12041,-0.28496 4.22143,-0.66628 6.32223,-1.04994 1.36567,-0.1714 2.7434,-0.14536 4.11371,0.13118 1.87454,0.32723 3.73569,0.7375 5.57393,1.26367 2.36729,0.68054 4.72279,1.41351 7.06817,2.17384 1.75612,0.55564 3.52755,1.08934 5.33924,1.38591 2.12806,0.29561 4.25236,0.30921 6.35749,0.002 2.58922,-0.30723 5.16747,-0.71141 7.77774,-0.8772 1.05739,-0.0243 2.10266,-0.007 3.15896,0.0406 -0.11084,1.59109 -0.2368,3.18101 -0.33596,4.77339 -0.0533,0.85353 -0.10995,1.70625 -0.15654,2.56044 -0.0356,0.6512 -0.16518,1.30437 -0.0896,1.95746 0.0914,0.79831 0.3894,1.56672 0.58398,2.3507 2.52182,-0.45137 5.29754,-0.2351 7.59041,-1.2929 2.44049,3.14773 7.05118,1.59542 6.68428,-4.52993 -0.0635,-1.05864 -0.0881,-2.11257 -0.0525,-3.16915 0.63688,0.0664 1.25113,-0.55717 1.08554,-1.80335 -0.0704,-0.53042 -0.12714,-1.06193 -0.19536,-1.59257 0.37704,-0.24005 0.64227,-0.79019 0.55587,-1.63741 -0.13833,-1.3563 -0.26837,-2.71378 -0.41139,-4.0698 -0.0737,-0.64928 -0.17864,-1.29592 -0.27108,-1.94374 0.0315,0.001 0.0614,3.1e-4 0.094,0.003 1.22458,0.004 2.4584,0.0344 3.65935,-0.19389 0.31416,-0.0841 0.63415,-0.14999 0.94152,-0.25421 0.89838,-0.30474 1.73762,-0.83746 2.25916,-1.63284 0.0722,-0.11008 0.13302,-0.21624 0.18573,-0.31911 0.0815,-0.15913 0.14117,-0.30831 0.17978,-0.44851 0.001,-0.0139 0.0108,-0.0267 0.0112,-0.0402 0.0526,-0.20919 0.0559,-0.39458 0.0265,-0.55307 0.69223,-0.16515 1.34301,-0.36016 1.85169,-0.63958 L 317.0189,330.6572 c -0.0883,-0.10575 -0.21368,-0.2092 -0.38263,-0.30049 -0.11599,-0.0626 -0.23347,-0.11961 -0.35315,-0.17335 -0.18547,-0.12821 -0.38436,-0.25178 -0.62361,-0.36237 0.0332,-0.25316 -0.14299,-0.57505 -0.59908,-0.79054 -0.2253,-0.10639 -0.45474,-0.20194 -0.68426,-0.29825 -0.23822,-0.0954 -0.47595,-0.19187 -0.7182,-0.27525 -0.22115,-0.0746 -0.44609,-0.12833 -0.6744,-0.16859 -0.14303,-0.0278 -0.28657,-0.0539 -0.43036,-0.0791 -0.11669,-0.058 -0.22974,-0.1243 -0.34705,-0.18072 -0.68207,-0.29753 -1.40167,-0.48531 -2.12072,-0.64944 -0.12387,-0.0242 -0.24763,-0.05 -0.37175,-0.075 0.18526,-0.85875 0.39429,-1.71045 0.58748,-2.56724 0.11355,-0.53111 0.23564,-1.06277 0.30035,-1.60458 0.0779,-0.65227 -0.27345,-0.98853 -0.60848,-0.93579 -0.0158,-0.0216 -0.013,-0.0473 -0.0292,-0.0685 -0.0938,-0.11053 -0.18275,-0.19941 -0.26617,-0.26688 l -0.002,-0.002 c -0.73567,-1.43914 -2.56257,-2.65273 -5.53765,-2.81063 -2.07924,-0.11029 -4.15319,-0.33755 -6.22744,-0.55542 -2.1119,-0.28302 -4.20578,-0.69371 -6.27136,-1.25022 -1.61643,-0.42398 -3.2319,-0.85597 -4.85604,-1.24051 -1.69322,-0.39107 -3.37367,-0.839 -5.0566,-1.27808 -2.24039,-0.52753 -4.49425,-0.9949 -6.75636,-1.40158 -2.7648,-0.53441 -5.54883,-0.93151 -8.33642,-1.27046 -2.97916,-0.40234 -5.96699,-0.56207 -8.95658,-0.63021 -3.005,-0.0996 -6.00188,0.005 -9.0003,0.0487 -2.31271,0.027 -4.63107,-0.0454 -6.9444,-0.0177 -1.78631,-0.0201 -3.55416,0.18612 -5.2904,0.52463 -1.47394,0.30127 -2.91841,0.70939 -4.30419,1.26815 -1.22181,0.53302 -2.33,1.26827 -3.44995,1.97308 -0.77052,0.52763 -1.64249,0.82109 -2.53296,1.09577 -1.26065,0.35294 -2.54145,0.64052 -3.81498,0.9489 -0.94631,0.24276 -1.66426,0.47607 -2.20829,0.77863 -0.31377,0.0376 -0.62854,0.0662 -0.94297,0.1056 -2.59049,0.3261 -5.13804,0.85778 -7.66572,1.45564 -1.31568,0.3268 -2.66845,0.53331 -3.96858,0.91269 -1.00628,0.29398 -1.69117,0.56364 -2.66877,0.92209 -2.80745,1.06964 -5.41424,2.53741 -8.00441,4.01889 -2.05615,1.18187 -4.2874,2.02852 -6.49848,2.89188 -2.45697,0.9187 -4.86107,1.95818 -7.26511,2.99426 -2.63182,1.03225 -4.92443,2.64727 -7.10499,4.38895 -2.16825,1.58051 -3.73429,3.76854 -5.21567,5.97175 -0.82362,1.31504 -1.58185,2.66812 -2.32276,4.03178 -2.16646,-1.18813 -4.28025,-0.58833 -6.31196,0.70482 -0.29839,0.23097 -0.61606,0.44061 -0.89585,0.69315 -1.27852,1.15324 -2.00587,2.75526 -2.48045,4.39585 -0.60797,2.67842 -0.73116,5.45065 -0.7517,8.21443 0.0248,1.55088 0.0426,3.10465 0.13547,4.65611 -0.28997,0.1225 -0.35091,0.20698 0.0107,0.16489 0.007,0.11907 0.035,0.42722 0.0542,0.67794 -0.70632,1.50903 -1.04939,3.16874 -1.27628,4.85574 -0.0666,0.40535 -0.10809,0.81225 -0.13225,1.21974 -0.0225,0.37928 0.0373,0.76183 0.0424,1.14217 -0.0154,-0.0362 -0.0303,-0.0726 -0.0457,-0.10873 -0.52013,-1.22028 -1.60897,-1.08352 -1.65686,-0.18301 -0.0112,0.20775 0.0325,0.45596 0.1523,0.7376 0.18575,0.43691 0.3662,0.87541 0.5463,1.3144 -0.0905,0.18391 -0.14648,0.41208 -0.14951,0.68118 -0.003,0.22388 0.0305,0.47483 0.10683,0.752 0.0319,0.11583 0.0565,0.23327 0.0855,0.34992 -0.10275,0.21504 -0.18067,0.47314 -0.21339,0.78807 -0.01,0.0984 -0.0159,0.19723 -0.0188,0.29567 -0.0195,0.68947 0.12947,1.38437 0.25179,2.06549 0.12949,0.82654 0.36213,1.63236 0.63061,2.42824 0.1604,0.51924 0.35385,1.02532 0.57927,1.52189 0.26661,0.5924 0.5142,1.19279 0.75322,1.79595 0.20055,0.52084 0.45221,1.02018 0.67491,1.53252 0.33919,0.80046 0.63485,1.61919 0.92403,2.43715 0.26549,0.80794 0.53287,1.61496 0.81497,2.41777 0.20965,0.58374 0.44255,1.157 0.68078,1.73028 0.23691,0.53979 0.49968,1.06983 0.75309,1.6025 0.24438,0.51391 0.47731,1.03334 0.69173,1.5591 0.19351,0.48478 0.39659,0.9669 0.59713,1.4489 0.13187,0.34168 0.29683,0.6689 0.45582,0.99929 0.036,0.0697 0.0748,0.13781 0.11131,0.20714 0.13647,0.9778 0.28947,1.95377 0.4573,2.92213 0.53053,3.05829 1.20831,6.20419 1.83556,9.24058 1.93051,9.28248 3.75436,18.5815 5.70423,27.86075 1.10731,5.27033 5.62228,5.35667 6.38165,1.62338 1.46639,5.5694 2.93287,11.139 4.39742,16.70923 0.0378,0.14396 0.0821,0.27917 0.12468,0.4152 L 129.66816,453.8867 Z M 161.7205,388.32074 c 0.61072,0.94898 1.34142,1.54157 2.0897,1.95448 -0.28514,0.57536 -0.48841,1.30094 -0.56454,2.19173 -0.0395,-0.086 -0.083,-0.17033 -0.12158,-0.25671 -0.2212,-0.53262 -0.43872,-1.06581 -0.6335,-1.60777 -0.26665,-0.75741 -0.51848,-1.5198 -0.77008,-2.28173 z m 3.23808,-15.30831 c -0.0201,-0.51281 -0.003,-1.02379 0.0907,-1.53531 0.0819,-0.64999 0.15876,-1.31095 0.35119,-1.93123 0.23298,-0.0829 0.46806,-0.15962 0.69493,-0.25788 0.31793,-0.13771 0.37661,-0.57928 0.54317,-0.88211 0.28585,-0.52025 0.48607,-1.08278 0.69885,-1.63907 0.56291,-0.69135 1.10607,-1.3973 1.56431,-2.16634 0.86192,-1.66675 1.47515,-3.4435 1.92517,-5.27707 0.13667,-0.27233 0.26685,-0.54814 0.40621,-0.81946 0.97314,-1.93688 1.95556,-3.86992 2.92005,-5.81085 1.12135,-2.11516 2.23078,-4.23549 3.48402,-6.27336 1.03918,-1.56117 2.08847,-3.15603 3.63931,-4.25569 1.63876,-1.31699 3.33869,-2.56823 5.33464,-3.32549 2.32235,-1.00073 4.64278,-2.00731 7.01539,-2.89264 2.56669,-1.00302 5.14675,-2.00638 7.52932,-3.38405 2.21637,-1.26791 4.43435,-2.54437 6.83104,-3.47422 0.12046,-0.0458 1.57538,-0.58783 1.84867,-0.66911 1.27217,-0.378 2.60475,-0.56348 3.89162,-0.8927 2.24816,-0.5378 4.51474,-1.01 6.81929,-1.30417 2.73718,-0.34555 5.48388,-0.61622 8.24338,-0.79949 1.73189,-0.1149 3.0141,-0.59408 3.91603,-1.25248 3.47254,-0.49302 6.95715,-0.91927 10.45743,-1.24553 1.7775,-0.13414 3.56114,-0.23124 5.3447,-0.30978 0.0838,0.32296 0.14524,0.61103 0.25113,0.96926 0.29632,1.00327 1.90545,0.88535 2.85824,1.32856 1.70934,0.34129 3.43188,0.58776 5.15166,0.84708 2.41352,0.36275 4.14206,-0.1339 5.21285,-1.01079 2.5667,0.18661 5.13407,0.34434 7.70098,0.38555 3.68632,0.0592 5.63057,-1.61207 5.88867,-3.45455 1.47708,0.28825 2.95489,0.57496 4.42329,0.91306 1.74634,0.4552 3.4903,0.92063 5.24703,1.32665 1.543,0.36262 3.07736,0.77721 4.61118,1.17835 2.48942,0.66543 5.01048,1.16368 7.55457,1.48901 2.16719,0.22772 4.3357,0.46132 6.50868,0.57911 l -6e-5,0.002 c 1.26299,0.0684 2.2512,-0.13355 3.12008,-0.42918 -0.0357,0.0668 -0.072,0.13298 -0.10775,0.19954 -0.0991,0.18486 -0.1444,0.35499 -0.14814,0.50348 -9.9e-4,0.0562 0.003,0.11056 0.0128,0.16113 -0.23783,0.22451 -0.38538,0.50063 -0.39993,0.80621 -0.0362,0.76225 0.63216,1.62975 2.1193,1.94679 0.22494,0.0479 0.45032,0.09 0.67544,0.13347 -0.0201,0.0513 -0.0712,0.084 -0.0824,0.1388 -0.63775,-0.0549 -1.27486,-0.13502 -1.91398,-0.16198 -1.69157,0.1442 -3.61499,0.0601 -4.58722,2.02787 -0.68452,1.38434 -0.56905,3.13514 -0.2806,4.68936 0.16369,0.88253 0.97916,1.53561 1.56458,2.23016 0.38685,0.45851 1.1934,1.17683 1.97527,1.85264 -0.12941,0.22301 -0.0201,0.77479 -0.0908,1.07612 -0.41177,1.74673 -0.82753,3.49285 -1.231,5.24191 -0.12999,0.56264 -0.25495,1.12711 -0.38321,1.69059 -0.85081,3.23833 -1.48978,6.53489 -2.17393,9.81824 -0.7563,3.70284 -1.70676,7.3541 -2.75852,10.97294 -1.06925,3.21001 -2.64169,6.21522 -4.05887,9.27135 -1.34745,3.0054 -2.81873,5.94753 -4.28062,8.89426 -0.6872,1.58486 -1.50039,3.11024 -2.12218,4.72588 -0.4222,1.0962 -1.03111,2.90842 -1.40337,3.99486 -0.89804,2.6451 -1.70351,5.33407 -2.75185,7.92129 -0.48173,1.18818 -0.84505,1.93207 -1.38431,3.09149 -1.04308,2.27999 -2.24311,4.47939 -3.42961,6.68166 -1.04576,2.10124 -2.02821,4.23825 -2.9146,6.41699 -0.21211,0.5627 -0.46014,1.10918 -0.70138,1.65843 -1.3835,-0.11985 -3.06638,0.40054 -4.79907,1.90941 -1.48185,1.29029 -2.95168,2.60115 -4.26228,4.06921 -2.25168,2.5886 -4.38162,5.28455 -6.70367,7.81126 -0.82154,0.93229 -1.66517,1.84668 -2.47755,2.78597 -1.04473,1.20648 -2.89077,3.20799 -3.00786,5.20872 -0.008,0.13093 0.0367,0.25992 0.0373,0.38952 -1.47626,0.46479 -2.93845,0.9647 -4.41837,1.42034 -1.61718,0.47053 -3.2248,0.98327 -4.86194,1.39109 -1.41509,0.37367 -2.85918,0.63536 -4.30625,0.87721 -1.63765,0.2887 -3.28045,0.56216 -4.92339,0.82402 -1.2829,0.17725 -2.55549,0.39743 -3.85065,0.50283 -1.17639,0.0999 -2.36112,0.15123 -3.53775,0.25325 -2.87061,0.34424 -3.42318,1.37214 -2.9894,4.58865 -0.78249,-0.11889 -1.53438,-0.36602 -2.27106,-0.66392 -0.69014,-0.24815 -0.55381,-0.2454 -0.96018,-0.56583 -0.69529,-0.65745 -1.56356,-1.06543 -2.33284,-1.614 -0.26148,-0.21091 -0.5419,-0.39523 -0.79621,-0.61487 -1.48965,-1.2887 -2.91499,-1.89285 -4.13826,-2.00287 -0.8935,-0.7449 -1.78631,-1.49147 -2.68253,-2.23262 -2.02078,-1.73732 -4.04917,-3.46441 -6.06137,-5.21181 -2.32325,-2.0174 -4.628,-4.05762 -6.93987,-6.08843 -0.12864,-1.54868 -0.29968,-3.06047 -0.41274,-4.74792 -0.16453,-2.45516 -0.15023,-2.55755 -0.1616,-4.37071 -0.0319,-5.08321 -4.08117,-6.43469 -5.77236,-3.60875 -0.28656,-2.63518 -0.6293,-5.26662 -0.88658,-7.90373 -0.47813,-4.90052 -4.35225,-5.82976 -5.88983,-3.14805 -0.58636,-1.33718 -1.45987,-2.20628 -2.38228,-2.51827 -0.0223,-0.15285 -0.0459,-0.30541 -0.0686,-0.45814 -0.87619,-6.00428 -6.46589,-6.41709 -6.55816,-1.15317 -0.006,0.35071 0.0133,0.72624 0.0584,1.12766 0.0506,0.44443 0.0911,0.89001 0.15217,1.33355 0.28775,2.08898 0.62411,4.17344 0.93553,6.25997 0.23644,1.58414 0.48184,3.16662 0.72203,4.75014 -1.69952,-6.52629 -3.38266,-13.05675 -4.84099,-19.63234 -0.78995,-3.56165 -3.13093,-4.71635 -4.7838,-3.92998 -0.15387,-1.28126 -0.26952,-2.56553 -0.3141,-3.85192 -0.0685,-1.97605 -0.6925,-3.42253 -1.52656,-4.29675 0.85658,-1.15822 1.10992,-3.08078 0.13777,-5.61389 -0.0874,-0.22786 -0.16392,-0.41239 -0.17397,-0.66682 -0.17642,-1.21685 -0.44883,-2.41352 -0.99899,-3.53667 -0.45493,-1.17335 -1.005,-2.30671 -1.5044,-3.4628 -0.26704,-0.56473 -0.47276,-1.1568 -0.54242,-1.77331 -0.0493,-0.51726 -0.1062,-1.03191 -0.12631,-1.54472 z m 35.85183,72.0279 c 0.6161,0.5392 1.22897,1.08213 1.84712,1.6189 0.1402,0.12175 0.28153,0.24226 0.42187,0.36382 -0.23293,-0.13554 -0.46299,-0.276 -0.69656,-0.4105 -0.17467,-0.19593 -0.35978,-0.38195 -0.53497,-0.57694 -0.32622,-0.35178 -0.68346,-0.67207 -1.03746,-0.99528 z M 246.65992,88.766015 c 0.002,-0.0057 -0.049,-0.01345 0.007,-0.01713 l 0.0762,0.0054 c -0.0276,0.0039 -0.0631,0.0079 -0.0825,0.01178 z m -9.89546,372.655945 c 0.60953,-0.0906 1.22076,-0.17415 1.83566,-0.23233 2.21353,-0.16653 4.43405,-0.2767 6.66231,-0.24052 0.36393,-0.006 3.82542,-0.0572 3.8855,-0.22683 1.02578,-2.89561 1.78925,-4.74266 1.88108,-5.96603 0.73372,-0.21542 1.46595,-0.43433 2.19864,-0.6523 1.60159,-0.49332 3.18492,-1.03901 4.78413,-1.5392 2.96289,-0.92674 4.37679,-2.67649 4.55584,-4.32798 0.0397,-0.0207 0.0813,-0.0375 0.12116,-0.0579 1.44211,-0.74004 2.79156,-1.63037 4.16416,-2.48361 2.87292,-1.75256 5.75872,-3.52032 8.32095,-5.70636 0.38124,-0.38084 0.77651,-0.747 1.14224,-1.14282 1.15876,-1.25418 2.05409,-2.7203 2.94565,-4.17163 0.99655,-1.64512 1.97878,-3.30827 2.82086,-5.04406 0.83816,-1.72531 1.67815,-3.453 2.36106,-5.25228 0.77188,-1.91851 1.65005,-3.79293 2.55301,-5.6491 1.25985,-2.33864 2.52851,-4.67443 3.63575,-7.09508 0.66198,-1.43052 1.00344,-2.11977 1.59911,-3.59811 1.07635,-2.67047 1.92112,-5.43709 2.84146,-8.16899 0.19582,-0.57219 0.95332,-2.81098 1.2229,-3.52297 0.55265,-1.45959 1.30178,-2.82849 1.91061,-4.26203 1.49165,-3.00842 2.99322,-6.01023 4.37028,-9.0775 1.58183,-3.41243 3.33213,-6.76948 4.47164,-10.37758 1.10806,-3.814 2.10757,-7.66269 2.90541,-11.56639 0.67473,-3.23755 1.30608,-6.48954 2.14644,-9.68338 0.0959,-0.42349 0.19707,-0.84577 0.29428,-1.26893 1.01832,-8e-5 2.09755,-0.11688 2.85536,-0.35011 0.39449,-0.12142 0.81751,-0.21775 1.21096,-0.36031 l -3.49513,117.38606 z m 19.80411,-371.976334 67.49093,4.748829 -1.33202,44.736605 c -8.0664,-0.34587 -16.06472,0.75226 -23.98357,1.85308 -0.61039,-0.87787 -1.07565,-1.54808 -1.58248,-2.15522 -0.0347,-0.0659 -0.0796,-0.15144 -0.11677,-0.2212 0.44264,-0.31699 0.98164,-0.68801 1.36621,-0.97075 1.16048,-0.85414 2.28913,-1.7514 3.43417,-2.62682 1.5116,-1.38941 3.87971,-3.2229 4.69928,-5.26556 1.30876,-3.26187 1.04332,-5.72714 -1.58806,-8.60963 -2.5807,-2.82599 -6.69295,-3.47693 -10.02716,-4.45915 -2.17637,-0.20184 -4.35129,-0.50476 -6.52895,-0.62157 0.0607,-0.64197 0.11715,-1.28478 0.22527,-1.91078 -0.71934,-1.25119 -1.19751,-2.67282 -2.15748,-3.75496 -1.37404,-1.54745 -4.51563,-2.69371 -6.32522,-3.32133 -0.54693,-0.18961 -1.10217,-0.35355 -1.65453,-0.5248 -0.15312,-0.87692 -0.4091,-1.73817 -0.82391,-2.51218 -0.57311,-1.0685 -2.04555,-1.37311 -3.19224,-1.75067 -1.52581,-0.5024 -5.10973,-0.12811 -6.46764,-0.0506 -0.31178,0.0259 -0.57093,0.0463 -0.87147,0.0716 -2.0191,-0.97504 -4.07295,-1.87137 -6.14742,-2.716763 0.21269,-0.563942 0.38068,-1.124663 0.43548,-1.67128 0.36484,-3.639325 -0.64114,-5.826973 -3.76825,-7.787995 -0.33873,-0.212438 -0.70572,-0.359363 -1.08417,-0.478806 z m -3.6622,234.722934 c 0.13822,-0.0407 0.27895,-0.0728 0.41835,-0.10929 -0.001,0.007 0.0439,0.0131 -0.005,0.0173 -0.0309,0.13775 -0.54903,0.13258 -0.41392,0.092 z m 5.04531,117.13113 c -0.0257,0.004 0.0993,-0.0734 0.26585,-0.18255 0.0239,0.0107 0.0383,0.015 0.0599,0.0237 -0.10583,0.0519 -0.31276,0.15654 -0.32584,0.1588 z m 34.3844,-317.04188 c 0.24618,0.0193 0.49215,0.0426 0.73832,0.06 1.26803,0.3099 2.53837,0.59993 3.80212,0.92993 0.58128,0.15187 1.14695,0.61346 1.72923,0.51441 0.35072,-0.0589 0.27897,-0.67464 0.5476,-0.89937 0.14504,-0.12088 0.60741,-0.22993 0.57285,-0.0378 -0.22526,1.23954 -2.43002,2.92199 -2.9907,3.44938 -0.61395,0.46978 -1.22739,0.93649 -1.83936,1.40837 -0.33371,-1.14132 -0.73779,-2.26347 -1.27892,-3.34142 -0.36454,-0.72443 -0.76054,-1.45876 -1.28115,-2.08322 z m 7.66809,68.69657 c 0.0641,-0.19061 0.124,-0.38499 0.31839,-0.63218 9.8e-4,0.0679 0.007,0.13583 0.008,0.20375 6.1e-4,0.14793 -0.0306,0.1978 -0.0426,0.3116 -0.0948,0.0386 -0.18866,0.0785 -0.28347,0.11683 z m 1.8802,-44.34045 c 6.80763,-0.94741 13.67606,-1.8356 20.60148,-1.56738 l -1.7325,58.18702 c -1.15382,-0.56337 -2.67927,-0.86413 -4.53737,-0.69833 -0.42624,0.038 -0.85218,0.0797 -1.27819,0.11914 0.30499,-1.22737 -0.14059,-2.65934 -1.48974,-3.82326 1.0758,-0.74226 1.8361,-1.79549 1.77058,-3.37306 -0.042,-1.00949 -0.2691,-1.78485 -0.6262,-2.37907 0.71055,-0.45603 1.40705,-0.93639 2.07946,-1.45009 4.91592,-3.75073 2.78921,-8.38 -1.43245,-7.98318 0.41266,-1.6705 0.67392,-2.33946 0.63601,-4.19734 -0.0508,-2.49344 -1.01635,-4.79843 -2.19427,-6.99141 0.0226,-1.32024 -0.77004,-2.79149 -2.47232,-3.90021 -1.93244,-2.82219 -3.97021,-5.57464 -6.12598,-8.23722 -1.05627,-1.32021 -2.08176,-2.66268 -3.08156,-4.02123 0.90876,-0.84415 0.85722,-2.07718 0.88807,-3.654 -0.24618,-2.01816 -0.54802,-4.04407 -1.00502,-6.03038 z m 5.48846,77.91648 c 0.0349,-0.0743 0.0555,-0.15857 0.093,-0.22989 0.0428,0.002 0.0861,0.002 0.12908,0.005 -0.0256,0.1185 -0.0441,0.24584 -0.0526,0.38514 -0.004,0.0663 -0.006,0.13576 -0.006,0.20669 2e-4,0.0117 10e-4,0.0235 9.6e-4,0.0353 -0.0548,-0.1336 -0.10674,-0.27377 -0.16424,-0.40236 z m 5.76568,116.34747 c 0.0105,-0.0147 0.0174,-0.0307 0.0249,-0.0471 0.0296,0.0364 0.075,0.0421 0.10324,0.0835 -0.0405,-0.0119 -0.0854,-0.0229 -0.12819,-0.0344 z m 0.87,0.24098 c 0.002,-0.008 0.005,-0.0238 0.007,-0.0249 0.002,0.009 0.003,0.0186 0.005,0.0277 -0.004,-8e-4 -0.008,-0.002 -0.0116,-0.003 z m 1.96308,-3.85387 c 0.28208,-0.008 0.53281,-0.0462 0.79325,-0.0751 l -0.0223,0.74876 c -0.25246,-0.2292 -0.50751,-0.4555 -0.77096,-0.67366 z" />
    </clipPath>
    <clipPath
       clipPathUnits="userSpaceOnUse"
       id="clipPath9601">
      <path
         id="path9603"
         style="fill:#ff0000;fill-opacity:1;fill-rule:nonzero;stroke:none;stroke-width:1.00011"
         d="m -252.48132,224.39839 16.19017,70.97668 c -0.68454,-0.7071 -1.42585,-1.36035 -2.15465,-2.02156 -0.73522,-0.61923 -1.27347,-1.39046 -1.79872,-2.18391 -0.70902,-1.13137 -1.36048,-2.29758 -2.03016,-3.45214 -0.51068,-0.85447 -0.94571,-1.49167 -1.39714,-1.945 -0.12791,-0.29346 -0.24744,-0.5904 -0.377,-0.88322 -1.07056,-2.41808 -2.32724,-4.74609 -3.64278,-7.04138 -0.69953,-1.1902 -1.29321,-2.44498 -2.03988,-3.6084 -0.57784,-0.90035 -1.03841,-1.49723 -1.67018,-2.35497 -1.85345,-2.45413 -4.03355,-4.62245 -6.2224,-6.77226 -1.74306,-1.70478 -3.21265,-3.65569 -4.69274,-5.58425 -1.60528,-2.1515 -3.3116,-4.22409 -5.01525,-6.29849 -1.76569,-2.29377 -3.99639,-4.12578 -6.31847,-5.8205 -2.16142,-1.72102 -4.73506,-2.71934 -7.29987,-3.63427 -1.5121,-0.48739 -3.04346,-0.90319 -4.57915,-1.29986 0.51859,-2.36115 -0.67784,-4.25684 -2.52157,-5.91251 -0.3104,-0.23365 -0.60591,-0.49056 -0.93196,-0.70144 -1.48868,-0.96288 -3.25128,-1.2905 -4.97749,-1.36714 -2.76959,0.0366 -5.48872,0.562 -8.16965,1.18367 -1.49384,0.38397 -2.99242,0.76181 -4.46709,1.21151 -0.20307,-0.25084 -0.30382,-0.29304 -0.15646,0.0486 -0.11327,0.0351 -0.40332,0.13289 -0.64037,0.20959 -1.66657,-0.3294 -3.37305,-0.27442 -5.07171,-0.10117 -0.41164,0.03 -0.81795,0.0846 -1.21911,0.1559 -0.37347,0.0663 -0.72646,0.21275 -1.09313,0.30599 0.0306,-0.0232 0.0614,-0.046 0.0919,-0.0692 0.0435,-0.0332 0.0803,-0.067 0.11862,-0.10085 z m -71.00737,14.79862 c -0.0691,0.0432 -0.13917,0.0855 -0.20783,0.12949 -0.08,0.0483 -0.15016,0.10988 -0.22883,0.1599 -0.062,-0.0532 -0.12405,-0.10638 -0.18601,-0.15961 z m -12.15637,2.53351 c 1.21584,1.16199 2.44581,2.31543 3.73028,3.40238 -0.0276,0.0181 -0.056,0.0353 -0.0835,0.0535 -0.50381,0.33731 -0.99073,0.69469 -1.47633,1.05708 -0.45351,0.35335 -0.8898,0.72932 -1.33157,1.09704 -0.4262,0.35447 -0.86092,0.69924 -1.30744,1.02789 -0.4128,0.29884 -0.82012,0.60625 -1.22835,0.91123 -0.29221,0.20637 -0.56081,0.44117 -0.83436,0.67081 -0.29875,0.26689 -0.59114,0.5402 -0.88087,0.81677 -0.34651,0.29671 -0.68197,0.60749 -1.01515,0.91888 -0.23046,0.21373 -0.11328,0.10179 -0.34741,0.33089 -1.60926,1.57497 0.0238,3.23846 1.62662,1.65673 0.18988,-0.18755 0.0887,-0.0899 0.3097,-0.29499 0.33894,-0.31681 0.67927,-0.62836 1.03011,-0.93201 0.25563,-0.24404 0.51475,-0.48705 0.77617,-0.72482 0.2412,-0.2026 0.47831,-0.41113 0.73658,-0.59233 0.40411,-0.30213 0.80626,-0.6044 1.21485,-0.90039 0.48141,-0.35529 0.95105,-0.72654 1.41052,-1.10949 0.4115,-0.34252 0.81818,-0.692 1.23862,-1.02357 0.45095,-0.33659 0.90384,-0.6695 1.37151,-0.98314 0.23305,-0.15377 0.46953,-0.3024 0.70444,-0.45338 0.0985,0.074 0.19497,0.15029 0.29427,0.2232 0.039,0.0286 0.0776,0.0542 0.11599,0.08 -2.16066,3.8689 1.73244,7.89623 6.97316,4.21331 0.19506,-0.13709 0.35123,-0.25352 0.5947,-0.32231 1.12648,-0.45238 2.20535,-0.99183 3.13196,-1.78284 1.00323,-0.71045 1.9396,-1.50301 2.91318,-2.25221 0.46865,-0.38823 0.98187,-0.7237 1.55828,-0.9339 0.97219,-0.33498 1.92485,-0.69525 2.97075,-0.74938 0.65297,-0.0721 1.31482,-0.15227 1.97154,-0.11032 0.14809,0.20504 0.29086,0.41351 0.45211,0.60909 0.22597,0.27407 0.67017,0.22814 1.01206,0.31806 0.58675,0.15441 1.18969,0.21651 1.79009,0.29217 0.833,0.38132 1.67493,0.74033 2.5526,1.00288 1.86451,0.44263 3.76286,0.6204 5.66862,0.628 0.30361,0.0683 0.60853,0.12955 0.9115,0.20075 2.15849,0.48702 4.31444,0.98411 6.47517,1.46176 2.37387,0.58828 4.74929,1.16421 7.08716,1.89727 1.81383,0.63878 3.6633,1.27767 5.17954,2.51525 1.75279,1.2716 3.45862,2.61789 4.77327,4.36321 1.64517,2.00321 3.29511,4.00273 4.84411,6.08169 1.71824,2.2381 3.44174,4.48863 5.46951,6.4623 1.87282,1.83981 3.75502,3.67794 5.35329,5.76918 0.0782,0.10566 1.02852,1.38003 1.18633,1.62425 0.737,1.13763 1.30447,2.37674 1.99811,3.53897 1.17589,2.03968 2.2931,4.11145 3.24951,6.26174 1.13208,2.55451 2.19452,5.13591 3.17604,7.74978 0.61601,1.64049 1.45322,2.76288 2.35343,3.47894 1.48921,3.22802 2.91711,6.48375 4.25296,9.77756 0.64797,1.68073 1.26149,3.37442 1.85735,5.07311 -0.28814,0.15566 -0.54895,0.28166 -0.86495,0.46679 -0.88469,0.51819 -0.30159,2.03984 -0.45296,3.05996 0.16787,1.72423 0.43099,3.44019 0.6814,5.15587 0.35141,2.40778 1.33687,3.95618 2.4974,4.78343 0.56733,2.51401 1.16283,5.02214 1.871,7.5028 1.01692,3.56236 3.20107,5.04602 5.05964,4.86658 0.15143,1.48895 0.30467,2.97791 0.40527,4.47005 0.0683,1.78673 0.12619,3.57363 0.24501,5.35904 0.0987,1.56953 0.1441,3.14205 0.20326,4.71252 0.0813,2.55095 0.33368,5.09353 0.76032,7.61807 0.41129,2.13979 0.81702,4.28117 1.3362,6.39999 l -0.002,4.1e-4 c 0.30191,1.23177 0.78546,2.13616 1.32464,2.90387 -0.0751,-0.0188 -0.14959,-0.0385 -0.22454,-0.0574 -0.20781,-0.0525 -0.38579,-0.0565 -0.53046,-0.0257 -0.0566,0.0121 -0.10787,0.0286 -0.15412,0.0502 -0.28607,-0.17583 -0.59575,-0.25498 -0.89496,-0.19821 -0.74836,0.14212 -1.39325,0.98674 -1.26667,2.49216 0.0191,0.22756 0.0434,0.45441 0.0676,0.68119 -0.0555,-0.007 -0.10161,-0.0479 -0.15835,-0.0471 -0.13279,-0.6269 -0.24124,-1.25814 -0.40089,-1.88013 -0.63274,-1.59484 -1.11171,-3.46602 -3.29952,-3.94499 -1.54016,-0.33711 -3.19969,0.18025 -4.62052,0.81869 -0.80632,0.36258 -1.20031,1.29887 -1.7026,2.02395 -0.3311,0.47842 -0.79123,1.42235 -1.21751,2.33163 -0.25349,-0.0726 -0.75572,0.16058 -1.06801,0.16247 -1.81048,0.01 -3.62201,0.0148 -5.43228,0.0321 -0.58274,0.006 -1.16527,0.0158 -1.74796,0.0237 -3.38284,-0.0673 -6.75936,0.0832 -10.1364,0.18693 -3.80528,0.13206 -7.61579,0.065 -11.42438,-0.1077 -3.41938,-0.28334 -6.78534,-1.10012 -10.15639,-1.75454 -3.30211,-0.59956 -6.57725,-1.33258 -9.85602,-2.05559 -1.73447,-0.29355 -3.44744,-0.72214 -5.19252,-0.94561 -1.18414,-0.15171 -3.11584,-0.31715 -4.27551,-0.42341 -2.82252,-0.24982 -5.65961,-0.40136 -8.46879,-0.80982 -1.29067,-0.18762 -2.11626,-0.36498 -3.39563,-0.61479 -2.5104,-0.47488 -4.98867,-1.1192 -7.46648,-1.75009 -2.33841,-0.51931 -4.69342,-0.96885 -7.06024,-1.31578 -0.60628,-0.0736 -1.2076,-0.18509 -1.80956,-0.29012 -0.2871,-1.3594 -1.28085,-2.85931 -3.2466,-4.17644 -1.68058,-1.12672 -3.37808,-2.23819 -5.18059,-3.15823 -3.1616,-1.56701 -6.39136,-2.99105 -9.51391,-4.63958 -1.14191,-0.57433 -2.27233,-1.17317 -3.41848,-1.73813 -1.47209,-0.72562 -3.94735,-2.03803 -5.91796,-1.6861 -0.12806,0.0226 -0.24257,0.0887 -0.36613,0.12637 -0.87946,-1.3132 -1.79029,-2.60507 -2.66229,-3.92352 -0.92704,-1.44787 -1.89186,-2.87576 -2.76324,-4.35733 -0.77407,-1.27529 -1.44821,-2.60437 -2.10394,-3.9417 -0.7566,-1.50911 -1.49985,-3.02706 -2.23229,-4.54813 -0.54541,-1.19392 -1.12936,-2.36846 -1.60881,-3.59004 -0.4399,-1.11011 -0.83465,-2.23738 -1.27607,-3.3468 -1.16974,-2.68323 -2.32496,-2.97723 -5.31242,-1.81229 -0.11306,-0.78128 -0.0928,-1.56185 -0.0192,-2.34038 0.0391,-0.722 0.0762,-0.59016 0.26784,-1.05569 0.43391,-0.82183 0.57538,-1.75229 0.88234,-2.62044 0.12789,-0.30077 0.22426,-0.61364 0.36309,-0.90922 2.19504,-4.67867 -0.27419,-7.77622 -3.13412,-7.39987 0.0759,-0.21485 0.15139,-0.42907 0.22607,-0.64422 0.2579,-0.74195 0.16357,-1.32242 -0.10064,-1.6742 0.034,-0.10024 0.0666,-0.20598 0.20388,-0.60153 0.36183,-1.04189 0.0275,-1.76392 -0.49419,-1.9829 0.1171,-0.2213 0.2448,-0.4369 0.35348,-0.66277 0.29034,-0.54958 0.58973,-1.09191 0.84864,-1.65763 0.32955,-0.70979 0.62141,-1.43541 0.95306,-2.14427 0.30248,-0.57579 0.67511,-1.11084 1.0264,-1.6566 0.31502,-0.50786 0.57852,-1.04497 0.84896,-1.57755 0.20366,-0.43981 0.43342,-0.8658 0.66035,-1.29379 0.16653,-0.27953 0.0801,-0.13531 0.26306,-0.42951 0.34377,-0.55246 0.35441,-0.99466 0.25881,-1.36639 0.19037,-0.32899 0.37719,-0.66033 0.56617,-0.98962 0.33709,-0.57773 0.67432,-1.15322 1.03703,-1.71493 0.32638,-0.49622 0.16441,-0.25461 0.48507,-0.72427 0.91342,-1.33735 0.1835,-2.39688 -0.77018,-2.19588 -0.12642,0.0266 -0.25802,0.10558 -0.38906,0.18326 0.0639,-0.10083 0.12948,-0.20106 0.19464,-0.30104 0.0936,-0.14184 0.19132,-0.28029 0.28941,-0.419 0.10733,-0.15129 0.12656,-0.28911 0.0944,-0.39038 0.0782,-0.24313 -0.0115,-0.43321 -0.19571,-0.41205 -0.10089,0.0118 -0.21379,0.0821 -0.31078,0.22907 -0.10725,0.16296 -0.21595,0.32531 -0.32348,0.48822 -0.0859,0.0343 -0.17414,0.11252 -0.24287,0.24698 -0.10217,0.19986 -0.20335,0.39973 -0.30389,0.60034 -0.0526,0.041 -0.10677,0.0757 -0.15195,0.15589 -0.0391,0.0697 -0.0764,0.14066 -0.11556,0.21043 -0.0578,0.0426 -0.11485,0.10612 -0.1627,0.19621 -0.26782,0.50409 -0.54926,1.00057 -0.80873,1.50906 -0.0153,0.03 -0.0285,0.0581 -0.0382,0.0861 -5.3e-4,10e-4 -3.1e-4,0.003 -10e-4,0.004 -0.14639,0.19601 -0.2964,0.38974 -0.41445,0.60535 -0.099,0.17756 -0.19253,0.35825 -0.28374,0.54004 -0.004,0.009 -0.006,0.0179 -0.01,0.0261 -0.13454,0.22387 -0.27941,0.44153 -0.39874,0.67421 -0.005,0.007 -0.007,0.0138 -0.0113,0.0204 -0.34455,0.55339 -0.65874,1.12555 -0.98487,1.69002 -0.26743,0.48859 -0.51991,0.98627 -0.8003,1.46722 -0.24823,0.44863 -0.50163,0.89441 -0.73732,1.3499 -0.20521,0.39359 -0.41061,0.7862 -0.57177,1.20118 -0.12493,0.3124 -0.25522,0.62147 -0.38156,0.93313 -0.14673,0.33656 -0.29651,0.67242 -0.46208,0.99999 -0.23342,0.4429 -0.45128,0.89427 -0.69335,1.33271 -0.24617,0.50834 -0.47252,1.02752 -0.69428,1.54731 -0.20149,0.49984 -0.38749,1.00438 -0.57079,1.51157 -0.17887,0.4566 -0.33661,0.92191 -0.52634,1.37405 -0.22775,0.58505 -0.4521,1.17134 -0.65214,1.76697 -0.14362,0.44479 -0.28689,0.89199 -0.48161,1.31663 -0.25654,0.53709 -0.53249,1.06535 -0.72486,1.63184 -0.24232,0.66038 -0.48269,1.32524 -0.61637,2.02 -0.11273,0.58525 -0.0371,1.04921 0.13916,1.37961 0.0189,0.15508 0.0442,0.30354 0.0863,0.43085 -0.19388,0.43585 -0.38955,0.87108 -0.51983,1.33263 -0.11385,0.43276 -0.20467,0.87013 -0.26254,1.31507 -0.0473,0.36317 -0.0266,0.67752 0.0411,0.9412 -0.52682,0.92592 -0.29566,1.69939 0.25618,1.93632 -0.0294,0.22166 -0.096,0.43478 -0.10455,0.66099 -0.12422,1.38572 -0.13612,2.77989 0.0571,4.16791 0.1738,1.2635 0.38278,2.5326 0.77263,3.75428 0.52473,1.33591 1.02036,2.20639 2.05103,3.11516 0.20136,0.43683 0.35756,0.89427 0.58602,1.31856 0.70227,1.47457 1.45655,2.92879 2.07225,4.44123 0.80631,2.0921 1.55965,4.20376 2.17429,6.35757 0.11177,0.34896 1.1701,3.66931 1.35182,3.68768 3.1019,0.31495 5.1119,0.62123 6.32259,0.42557 0.42226,0.65625 0.84752,1.31045 1.27206,1.96506 0.94419,1.42724 1.93377,2.82458 2.88392,4.24803 1.76037,2.63665 3.86592,3.59198 5.51661,3.38074 0.0316,0.0334 0.0597,0.0693 0.0913,0.10319 1.13606,1.21636 2.39148,2.30871 3.61733,3.43193 2.53362,2.35908 5.08582,4.72657 7.9479,6.68515 0.4797,0.27861 0.94943,0.57408 1.43899,0.83422 1.55154,0.8243 3.23169,1.3458 4.89604,1.86702 1.88359,0.57799 3.77868,1.13672 5.70409,1.54432 1.91405,0.40619 3.83129,0.81362 5.77163,1.05335 2.08248,0.29733 4.15242,0.70777 6.21164,1.14598 2.63084,0.66986 5.26106,1.34889 7.92672,1.85255 1.5771,0.3053 2.34409,0.47379 3.94854,0.70395 2.89872,0.41589 5.82229,0.58678 8.73465,0.83858 0.61099,0.0556 2.99855,0.26505 3.76618,0.35921 1.5738,0.19315 3.117,0.59642 4.68194,0.84966 3.34611,0.73734 6.68965,1.48593 10.05949,2.09934 3.76383,0.73043 7.523,1.63581 11.34736,1.89506 4.01445,0.18104 8.03071,0.24971 12.04158,0.11131 3.33088,-0.10226 6.661,-0.24933 9.99787,-0.1821 0.43769,-0.006 0.87604,-0.007 1.31393,-0.0114 0.29699,0.98097 0.7244,1.99209 1.17096,2.6674 0.4278,0.64709 0.78957,1.41921 1.45415,1.81891 1.1174,0.672 2.45809,0.84719 3.68701,1.2714 0.95269,-0.41463 1.98941,-0.67703 2.85817,-1.24288 0.50956,-0.33172 0.8317,-0.88971 1.18179,-1.38642 0.48103,-0.68304 0.84644,-1.43561 1.18509,-2.20264 2.15167,6.42391 8.31465,5.46898 7.91915,-0.55038 0.0742,-0.0346 0.12777,-0.13794 0.19857,-0.18766 0.27081,0.0518 0.58448,-0.15566 0.69822,-0.69053 0.045,-0.21148 0.0737,-0.42542 0.0951,-0.64099 0.0399,-0.1502 0.10205,-0.26405 0.13493,-0.42285 0.25575,-0.0247 0.51841,-0.26951 0.59437,-0.76107 0.0373,-0.24157 0.0629,-0.48478 0.0893,-0.72792 0.0229,-0.25157 0.0471,-0.50261 0.0571,-0.75529 0.008,-0.23015 -0.006,-0.45931 -0.0333,-0.68835 -0.0148,-0.14415 -0.0316,-0.28858 -0.0488,-0.43265 0.022,-0.12591 0.0532,-0.24987 0.0738,-0.37606 0.089,-0.72574 0.0611,-1.46197 0.0106,-2.19229 -0.0127,-0.125 -0.0238,-0.25017 -0.0358,-0.37526 0.88511,-0.0212 1.77053,-0.0172 2.65596,-0.0306 0.54718,-0.014 1.0973,-0.0199 1.64059,-0.0834 0.65402,-0.0765 0.87709,-0.49267 0.72841,-0.80303 0.0163,-0.0202 0.0425,-0.0223 0.0578,-0.0441 0.0796,-0.11621 0.13962,-0.2222 0.18074,-0.31821 l 0.002,-0.002 c 1.17862,-1.04259 1.8209,-3.08258 1.1066,-5.98337 -0.49916,-2.0271 -0.88357,-4.07636 -1.27718,-6.12376 -0.0427,-0.26247 -0.0776,-0.52633 -0.11621,-0.7893 l 32.8136,143.85279 -178.46289,37.19339 -63.73619,-279.41546 z m -44.10087,88.84782 c -0.0137,-0.0287 0.047,0.0454 0.0625,0.0731 0.038,0.0674 0.0736,0.13712 0.10492,0.20656 -0.0539,-0.0706 -0.10563,-0.15014 -0.16752,-0.27968 z m 139.68932,-11.85236 c 0.0797,0.12361 0.15177,0.25162 0.2277,0.37734 -0.007,5.2e-4 -0.0111,-7.6e-4 -0.018,-3.4e-4 -0.14233,0.002 -0.28759,-0.49798 -0.20969,-0.37708 z m -111.89881,32.0531 c -0.0115,-0.0238 0.10003,0.0786 0.25416,0.21353 -0.003,0.0255 -0.0221,0.04 -0.005,0.0632 -0.0811,-0.0898 -0.2426,-0.26441 -0.24864,-0.27679 z m 111.34285,30.27296 c 0.0172,0.007 0.0356,0.0105 0.0528,0.013 -0.0266,0.0369 -0.0189,0.082 -0.0507,0.11878 -8.1e-4,-0.0438 -0.003,-0.0876 -0.004,-0.1314 z m 0.0203,0.89345 c 0.008,3.4e-4 0.0174,4.9e-4 0.0261,7.2e-4 -0.008,0.004 -0.0174,0.008 -0.0253,0.0114 -5.5e-4,-0.004 -0.001,-0.008 -6.7e-4,-0.0119 z" />
    </clipPath>
    <clipPath
       clipPathUnits="userSpaceOnUse"
       id="clipPath14651">
      <path
         id="path14653"
         style="fill:#ff0000;fill-opacity:1;fill-rule:nonzero;stroke:none;stroke-width:1.00004"
         d="m 251.35468,209.00125 -20.30148,77.50879 c 2.0159,-3.79084 4.13084,-7.5276 6.36363,-11.1946 1.30454,-2.14255 2.20632,-3.56801 3.10638,-4.9458 0.52853,-1.3026 1.07348,-2.59843 1.603,-3.90048 1.01529,-2.49667 2.50084,-3.80393 3.97112,-4.30305 3.39114,-4.76946 7.01648,-9.36842 10.90885,-13.73752 2.32961,-2.61495 3.55022,-3.84441 5.93381,-6.3286 0.1617,-0.16352 0.32331,-0.32726 0.48507,-0.49077 -0.74161,0.27616 -1.44045,0.56725 -2.18591,0.88244 -8.02155,3.39135 -11.7191,-4.67006 -3.70297,-8.07393 1.10544,-0.46931 2.0836,-0.90096 3.24685,-1.29811 4.36951,-1.49177 8.87053,-2.64467 13.39667,-3.57644 1.90759,-0.39271 3.83224,-0.70809 5.74767,-1.06275 6.2827,-1.04222 12.61843,-1.73022 18.95916,-2.35448 0.12611,-0.10291 0.24919,-0.2055 0.38463,-0.30838 0.33072,-0.25122 0.64302,-0.52739 0.99146,-0.75365 1.07803,-0.70004 2.24007,-1.25522 3.44445,-1.71225 z m 87.42093,23.96312 c -1.03245,0.53975 -1.08392,0.5681 -3.37436,1.80817 -2.82978,1.58761 -5.68684,3.18886 -8.2065,5.2454 -3.31277,2.7039 -6.34791,2.44539 -7.83565,0.8598 -1.78823,0.80134 -3.54074,1.67973 -5.21629,2.69205 -7.44609,4.49867 -12.22023,-2.95254 -4.79647,-7.48752 0.72727,-0.44427 1.46799,-0.86755 2.21743,-1.27347 -6.62675,0.32192 -13.2459,0.93055 -19.73859,2.25993 -0.19299,1.63451 -1.42478,3.45133 -4.02879,4.84031 -1.14009,0.60812 -2.28086,1.21553 -3.42097,1.82366 -5.97703,3.26127 -12.00658,6.50697 -17.44447,10.62387 -1.79379,1.35806 -3.52954,1.94729 -5.00336,1.9874 -0.30797,0.36092 -0.62462,0.71445 -0.93037,1.07722 -0.0821,0.17372 -0.13337,0.33733 -0.22798,0.51482 l -1.86895,3.50058 c -2.55324,4.92584 -5.07027,9.86548 -7.37865,14.91514 -2.05703,4.49952 -3.59955,8.17303 -5.46688,12.77466 -0.91973,2.26643 -1.80649,4.54559 -2.70971,6.81874 -2.61928,6.64856 -5.1707,13.3365 -8.08458,19.86087 -0.64078,1.43469 -1.22068,2.67312 -1.79653,3.87369 1.42764,-0.83507 2.80286,-1.08334 3.91725,-0.78735 2.8395,0.75416 4.03375,4.60312 0.37388,8.61877 -0.21809,0.23927 -0.44071,0.47442 -0.65889,0.71361 0.0756,1.44534 -0.47889,3.20289 -1.96178,5.05366 -4.11027,5.13039 -2.01907,2.52853 -6.28118,7.8018 -3.78929,4.63229 -7.57788,9.26461 -11.3043,13.94805 -1.73614,2.18202 -3.64968,3.12177 -5.27338,3.17296 l -33.71018,128.7017 181.82532,49.8405 72.78937,-277.90162 z" />
    </clipPath>
    <clipPath
       clipPathUnits="userSpaceOnUse"
       id="clipPath14807">
      <path
         id="path14809"
         style="fill:#ff0000;fill-opacity:1;fill-rule:nonzero;stroke:none"
         d="m 66.677734,110.87305 v 79.56445 c 1.439491,-1.55876 2.860148,-3.13543 4.267578,-4.72266 2.80603,-3.26975 1.421276,-1.64551 4.15625,-4.87304 3.53538,-4.17228 7.283152,-5.92332 10.419922,-5.95313 0.03462,-3.3e-4 0.06319,0.0136 0.09766,0.0137 0.625691,-0.63267 1.250454,-1.2667 1.876953,-1.89843 3.152288,-3.13602 6.370088,-6.21129 9.677734,-9.1836 0.685941,-0.61639 1.38165,-1.22282 2.072266,-1.83398 2.565543,-2.18674 1.311693,-1.13227 3.757813,-3.16602 0.84103,-0.69925 1.64857,-1.01003 2.33398,-1.04101 2.05622,-0.0929 3.01364,2.34206 0.49023,4.43945 -2.38391,1.98147 -1.16443,0.9572 -3.65429,3.07813 -0.67408,0.59629 -1.35201,1.18759 -2.02149,1.78906 -3.253064,2.92253 -6.417285,5.94573 -9.517571,9.02929 -0.134836,0.13597 -0.269697,0.272 -0.404297,0.40821 3.432066,2.83143 4.052516,9.02869 -1.642578,15.74804 -2.318266,2.73525 -2.263385,2.66126 -3.56836,4.17774 0.06931,2.39033 -0.551948,5.17515 -2.300781,8.26758 4.034062,1.40418 6.879286,6.65728 4.675781,14.79101 -0.742298,2.74011 -1.447221,5.49447 -1.96875,8.28321 2.963234,-0.70217 5.023507,-1.32459 7.263672,-1.37696 1.524017,-0.0356 3.206189,0.17938 5.488281,0.78321 6.744803,1.7844 11.423993,6.44334 14.929683,12.22656 0.79847,1.31714 1.41786,2.73247 2.06836,4.13086 2.17483,-2.26394 4.31487,-4.56428 6.5918,-6.72461 0.75652,-0.71777 1.49303,-1.46534 2.33398,-2.08203 0.95027,-0.69685 1.90023,-2.21811 3.01758,-1.84375 4.63293,1.55224 8.53408,4.76203 12.80078,7.14258 -0.30426,1.24015 -0.53103,2.50528 -0.79687,3.75781 1.40097,2.90155 1.39092,7.18556 -1.13867,12.31054 -0.22182,0.44939 -0.44417,0.89838 -0.66602,1.34766 1.18614,-0.54803 2.36816,-0.81808 3.49219,-0.83203 2.82962,-0.0351 5.26291,1.56153 6.48828,4.29102 2.35013,-2.40066 4.97001,-3.41465 7.31445,-3.28126 3.23384,0.18418 5.89893,2.57964 6.64649,6.4668 1.21223,-0.62372 2.43155,-0.95086 3.5957,-0.99804 1.47838,-0.0601 2.86509,0.32746 4.04101,1.08984 1.84011,-1.70282 3.86684,-2.53492 5.77735,-2.58984 3.88618,-0.11196 7.23281,3.00453 7.57812,8.36328 2.02286,-1.96944 4.27085,-2.87949 6.35352,-2.87891 1.36986,5e-4 2.66594,0.39978 3.78125,1.14453 1.86849,-1.82385 3.99795,-2.67444 6.00781,-2.64062 0.34549,0.006 0.67338,0.10108 1.00977,0.1582 1.41356,-0.95013 2.91498,-1.41262 4.36328,-1.41406 5.04698,-0.005 9.42877,5.5313 7.03711,15.08008 -1.15601,4.61531 -0.57552,2.24949 -1.73633,7.0957 -0.69775,3.0501 -1.41889,6.10827 -1.93164,9.19726 h 97.23633 c -0.089,-0.59279 -0.18409,-1.18468 -0.27344,-1.77734 -0.80878,-5.79546 -1.84101,-11.55615 -2.91797,-17.30664 -1.71136,-9.13793 2.39075,-14.33963 7.0957,-14.62891 1.29969,-0.0799 2.63825,0.26261 3.91993,0.95313 0.84343,-4.80523 4.02498,-7.45522 7.52148,-7.43946 3.01816,0.0137 6.25583,2.03438 8.42969,6.33594 1.42366,-1.59568 3.20284,-2.46883 5.0332,-2.58008 3.41875,-0.20778 6.97198,2.24157 8.65625,7.4043 1.47214,-2.67378 3.81799,-4.11897 6.29492,-4.1914 2.98666,-0.0874 6.13098,1.83902 8.13672,5.91015 2.98701,-1.74656 5.98638,-3.47045 8.95313,-5.25195 2.58838,-1.61539 5.22212,-3.15246 7.82617,-4.74219 2.41671,-1.52984 4.88714,-2.97562 7.21875,-4.63477 3.30525,-2.63929 6.65102,-5.22469 10.02344,-7.77734 3.52812,-2.66673 6.99924,-5.40363 10.57421,-8.00781 1.82279,-1.31022 3.64051,-2.62715 5.46875,-3.92969 3.5632,-2.53855 6.87785,-3.54178 9.6211,-3.46094 0.99069,0.0292 1.9017,0.20715 2.72851,0.49805 0.86897,-1.07723 1.72172,-2.16713 2.54688,-3.2793 1.94506,-2.67624 3.52656,-5.59408 4.90039,-8.59765 1.03477,-2.21543 1.69266,-4.56791 2.26953,-6.93555 0.28829,-1.18055 0.57139,-2.36205 0.82422,-3.55078 0.0602,-0.2832 0.27652,-0.98646 0.19922,-1.35742 -0.14374,-0.002 -0.59364,-1.74643 -0.61914,-1.83203 -0.43641,-1.43039 -1.1182,-2.76565 -1.8418,-4.06836 -0.97757,-1.70336 -1.82835,-3.47458 -2.72461,-5.22071 -0.76805,-1.44764 -1.60351,-2.85885 -2.44336,-4.26562 -1.02086,-1.70314 -2.03024,-3.41242 -3.03515,-5.125 -0.7065,-1.29332 -1.5121,-2.52157 -2.3086,-3.75977 -0.46122,-0.7115 -1.00896,-1.36076 -1.54492,-2.01562 -0.48047,-0.58704 -0.2772,-0.4032 -0.5957,-0.66602 -1.05497,-1.14365 -2.2255,-2.16761 -3.37305,-3.21484 -1.1524,-1.07716 -2.38505,-2.05987 -3.59766,-3.06641 -1.0422,-0.85012 -2.07712,-1.70793 -3.06836,-2.61719 -1.10198,-1.13267 -2.19401,-2.27525 -3.30468,-3.40039 -0.76986,-0.69159 -1.45983,-1.55375 -2.33985,-2.11523 -0.49236,-0.17203 -1.10684,-0.45648 -1.64062,-0.67188 -0.69571,-0.3045 -1.38572,-0.6201 -2.08594,-0.91406 -13.61455,-5.71548 -10.81242,-18.25384 0.0684,-17.91601 2.01496,0.0626 4.30824,0.56786 6.82422,1.63867 0.63133,0.2687 1.26184,0.53595 1.88281,0.82812 1.98257,0.81652 3.96662,1.67948 5.6836,2.98828 1.47561,1.15346 2.88202,2.39784 4.1875,3.74219 0.95068,0.96329 1.90792,1.92421 2.8164,2.92578 0.6265,0.73815 1.6116,1.24681 2.29688,1.9336 1.41198,1.18613 2.85801,2.33328 4.20312,3.59765 1.45043,1.32873 2.92321,2.63517 4.25977,4.08204 1.52848,1.65782 2.96028,3.40848 4.19531,5.29882 0.92777,1.44325 1.85672,2.88399 2.69336,4.38282 0.98132,1.67697 1.9707,3.35051 2.96875,5.01757 1.02997,1.73129 2.05748,3.46563 2.99023,5.25196 0.81114,1.58523 1.58394,3.18988 2.46875,4.73633 V 110.87305 Z M 442.43945,226.01758 c -0.0901,0.20185 -0.16579,0.40896 -0.25976,0.60937 -1.90827,4.10172 -4.08014,8.08894 -6.76953,11.73828 -2.97037,3.97892 -6.13945,7.8074 -9.65625,11.32032 -3.48455,3.48243 -7.0722,6.87425 -10.96289,9.90429 -1.96404,1.45281 -2.48431,1.89754 -4.5625,3.19336 -3.11815,1.94424 -6.45132,3.50818 -9.83594,4.92578 -4.03449,1.62109 -8.15005,3.3397 -12.56055,3.4668 -0.79864,0.023 -1.39943,0.0204 -2.01172,0.0195 -1.19304,0.75415 -2.35978,1.5486 -3.56054,2.29297 -2.64063,1.61128 -5.31228,3.17403 -7.9375,4.81055 -3.46372,2.07991 -6.96881,4.08405 -10.45313,6.1289 -1.14717,0.64743 -2.30912,1.27223 -3.4668,1.9043 0.61558,2.5662 1.29019,5.11863 2.09571,7.63672 0.19591,0.58228 0.39373,1.16355 0.58789,1.74609 h 79.35351 z m -374.785153,1.2832 c -0.323744,0.30674 -0.64977,0.59393 -0.976563,0.86133 v 17.84961 c 0.04448,-0.11161 0.0889,-0.22446 0.132813,-0.33594 -0.03067,-3.54885 -0.169805,-7.0964 0.01758,-10.64453 0.06637,-1.25692 0.188863,-2.5105 0.283203,-3.76563 0.132072,-1.32735 0.347411,-2.64498 0.542969,-3.96484 z m 18.796875,20.10938 c -0.80995,0.80896 -1.550182,1.68503 -2.173828,2.63281 -0.714654,5.00861 -3.06876,8.12719 -5.824219,9.37891 -0.05126,4.83279 -1.214657,7.92368 -6.017578,3.50195 -1.822281,-1.67773 -3.644516,-3.35549 -5.466797,-5.03321 -0.08263,-0.42641 -0.18861,-0.85081 -0.291016,-1.27539 v 39.09961 h 66.218746 c -0.0964,-0.67873 -0.1309,-1.40399 -0.10156,-2.16796 -4.932,3.21189 -10.07038,1.82594 -11.8457,-2.5625 -5.15362,2.7683 -11.03113,-0.52906 -11.20508,-8.46876 -2.98814,2.97711 -8.05367,2.82878 -12.093749,-1.86132 -5.08043,-0.45693 -7.986721,-5.52549 -5.552735,-11.61133 -0.925652,-2.76419 -1.773359,-5.5576 -2.6875,-8.32227 -0.621332,-1.87893 -1.266536,-3.75005 -1.90039,-5.625 -0.988223,-2.92295 -1.276693,-5.50351 -1.058594,-7.68554 z" />
    </clipPath>
    <clipPath
       clipPathUnits="userSpaceOnUse"
       id="clipPath15059">
      <path
         id="path15061"
         style="fill:#ff0000;fill-opacity:1;fill-rule:nonzero;stroke:none;stroke-width:1.00004"
         d="m -61.529286,123.23599 -72.789364,277.90162 -181.82533,-49.84051 34.52017,-131.79412 c 0.39432,0.16761 0.86343,0.29207 1.41166,0.35667 0.99455,0.1171 1.99674,0.13986 2.99577,0.16312 0.30817,0.007 0.59157,-0.0114 0.8567,-0.0457 1.84429,0.29413 3.70258,0.46705 5.56454,0.56447 0.22873,0.0108 0.45789,0.0201 0.68674,0.0308 1.01166,0.0477 1.79647,-0.15197 2.35242,-0.4896 0.96664,0.15733 1.93166,0.3245 2.8987,0.47967 16.23223,2.60487 19.19007,-12.60365 5.23246,-16.82154 -0.93055,-0.28122 -1.93642,-0.51312 -3.01832,-0.68807 -1.78848,-0.28923 -3.57469,-0.59319 -5.36219,-0.8885 0.75871,-4.92394 1.71661,-9.81386 2.68309,-14.6984 0.20393,-1.01377 0.45905,-2.01551 0.6771,-3.02593 2.28104,-0.80652 4.50802,-3.18925 5.62784,-7.39551 1.77147,-6.65398 4.58244,-12.95676 7.36251,-19.22311 0.94344,-1.91326 1.82908,-3.85696 2.83029,-5.74008 1.08693,-2.04438 2.25793,-4.0428 3.43275,-6.03719 4.30315,-7.305 9.03442,-14.3283 13.87997,-21.27589 3.02256,-4.35861 6.33434,-8.4933 9.73293,-12.55805 0.17443,-0.20862 0.32135,-0.41454 0.47884,-0.62167 5.60407,3.97616 11.21553,7.99436 16.14337,12.80412 9.94032,9.70208 19.85281,4.42281 17.54238,-4.3698 7.90342,3.48542 14.03467,-1.03553 12.40921,-7.74899 1.61148,1.11968 3.20746,2.26278 4.77232,3.44984 3.30644,2.50787 6.41965,3.62455 9.08833,3.78512 3.66247,6.28358 9.69233,5.64929 11.25305,0.87226 0.10131,-0.051 0.16338,-0.14733 0.251,-0.21582 0.0622,0.0708 0.10018,0.11056 0.27402,0.30724 0.11493,0.1301 0.23031,0.19158 0.34608,0.30278 0.25646,0.26312 0.49875,0.53945 0.75361,0.80407 1.66068,2.58436 3.29415,5.18581 4.92652,7.78759 0.44233,1.13293 0.78693,2.11251 1.25325,3.39761 0.61204,1.68643 1.66679,2.43973 2.59867,2.46039 0.66246,0.6147 1.35007,0.82275 1.95411,0.77586 1.64922,2.63129 4.14038,2.11387 4.34939,0.084 0.23468,0.42103 0.46325,0.84465 0.681,1.27467 0.0641,0.12925 0.128,0.2585 0.19216,0.38776 0.58661,1.18182 1.77301,0.60464 1.18628,-0.57712 -0.0658,-0.13256 -0.13193,-0.2648 -0.19775,-0.39736 -0.66597,-1.31314 -1.40356,-2.58853 -2.2241,-3.8131 -0.79693,-1.20491 -1.59913,-2.40802 -2.35954,-3.63627 -0.60454,-0.97471 -1.194,-1.96214 -1.90505,-2.86573 -0.0959,-0.12314 -0.1484,-0.18554 -0.20861,-0.26308 -0.16307,-0.27711 -0.35316,-0.53903 -0.54235,-0.79864 -0.21341,-0.29288 -0.42935,-0.58286 -0.6439,-0.87491 -0.2624,-0.35904 -0.3194,-0.43709 -0.39058,-0.53501 -0.67124,-0.99025 -0.75527,-1.13288 -2.25639,-3.25675 -0.20659,-0.29232 -0.42053,-0.53994 -0.6371,-0.75397 -0.66139,-1.07826 -1.30807,-2.16595 -1.99178,-3.23065 -0.11983,-0.26217 -0.24118,-0.52543 -0.4314,-0.80456 -1.29073,-1.89396 -2.08973,-3.08803 -3.41534,-4.95715 -0.86212,-1.21552 -1.96578,-2.75233 -2.9294,-3.9277 -0.26811,-0.32711 -0.566,-0.62723 -0.84933,-0.94133 -0.64524,-0.71529 -1.29136,-1.12459 -1.87772,-1.29185 -0.0783,-0.0223 -0.1552,-0.0394 -0.23121,-0.053 -0.24159,-0.33981 -0.44816,-0.65735 -0.70971,-1.01811 -0.98808,-1.36296 -2.03194,-2.76088 -3.13482,-4.040537 -0.5625,-0.652501 -0.89554,-0.945012 -1.47389,-1.487967 -0.6019,-0.565149 -1.18778,-0.906815 -1.72317,-1.06984 -1.39359,-0.42427 -2.43141,0.370639 -2.48528,1.607804 -2.9611,-2.097533 -5.96445,-4.13357 -9.032,-6.072847 z M -205.9236,83.655774 c -0.59766,1.171343 -0.84832,2.532297 -0.69884,3.98281 -6.00873,-3.097996 -3.69234,-1.936694 -10.55669,-5.34828 -1.47694,-0.734027 -2.88403,-1.258826 -4.20671,-1.60325 -8.70058,-2.265617 -13.7808,3.334201 -11.64468,9.377601 -3.76053,2.732903 -4.1439,8.758678 1.54641,14.141995 -3.59991,4.31299 -7.10623,8.70116 -10.31179,13.32186 -5.06133,7.26251 -10.01218,14.60189 -14.49272,22.2464 -1.29054,2.20185 -2.57198,4.41201 -3.76621,6.66842 -1.07498,2.03099 -2.02575,4.12651 -3.03916,6.1895 -0.51099,1.15469 -1.01681,2.31485 -1.52373,3.47409 -0.12799,-0.0216 -0.25424,-0.0519 -0.38409,-0.0649 l 21.64718,-82.646531 z" />
    </clipPath>
  </defs>
  <g
     inkscape:label="Layer 1"
     inkscape:groupmode="layer"
     id="layer1"
     transform="translate(-93.908078,-121.1751)">
    <ellipse
       style="fill:#f2f4f3;fill-opacity:0;stroke:#ff8400;stroke-width:5.49147;stroke-dasharray:none;stroke-opacity:1"
       id="path5372"
       cx="270.58624"
       cy="395.56589"
       rx="11.188969"
       ry="28.627924"
       transform="matrix(0.90051808,-0.43481857,0.29727435,0.9547921,0,0)"
       inkscape:label="path5372" />
    <path
       style="fill:#f2f4f3;fill-opacity:0;stroke:#ff8400;stroke-width:5.46137;stroke-dasharray:none;stroke-opacity:1"
       d="m 308.30357,319.99518 c 65.53648,-13.65344 127.17199,-42.1306 127.17199,-42.1306"
       id="path5379" />
    <path
       style="fill:#f2f4f3;fill-opacity:0;stroke:#ff8400;stroke-width:5.46137;stroke-dasharray:none;stroke-opacity:1"
       d="m 369.93907,288.39723 4.68118,12.87324"
       id="path5381" />
    <circle
       style="fill:#0b7506;fill-opacity:0;stroke:#d22d2d;stroke-width:4.68118;stroke-dasharray:none;stroke-opacity:1"
       id="path5659"
       cx="192.24937"
       cy="319.41003"
       r="26.721722" />
    <circle
       style="fill:#0b7506;fill-opacity:0;stroke:#d22d2d;stroke-width:4.68118;stroke-dasharray:none;stroke-opacity:1"
       id="circle5730"
       cx="192.24937"
       cy="319.41003"
       r="16.775686" />
    <path
       style="fill:#0b7506;fill-opacity:0;stroke:#d22d2d;stroke-width:4.68118;stroke-dasharray:none;stroke-opacity:1"
       d="m 167.09036,247.36614 6.02578,-7.07094 2.16847,-14.12292 -15.98643,0.0147 2.0382,13.89968 z"
       id="path5841"
       sodipodi:nodetypes="cccccc" />
    <path
       style="fill:#0b7506;fill-opacity:0;stroke:#d22d2d;stroke-width:4.68118;stroke-dasharray:none;stroke-opacity:1"
       d="m 167.09036,255.88174 6.02578,7.07093 2.16847,14.12292 -15.98643,-0.0147 2.0382,-13.89969 z"
       id="path5843"
       sodipodi:nodetypes="cccccc" />
    <path
       style="fill:#0b7506;fill-opacity:0;stroke:#d22d2d;stroke-width:4.68118;stroke-dasharray:none;stroke-opacity:1"
       d="m 171.58018,251.56088 7.07092,6.02578 14.12293,2.16847 -0.0147,-15.98644 -13.89968,2.03822 z"
       id="path5849"
       sodipodi:nodetypes="cccccc" />
    <path
       style="fill:#0b7506;fill-opacity:0;stroke:#d22d2d;stroke-width:4.68118;stroke-dasharray:none;stroke-opacity:1"
       d="m 162.14185,251.56088 -7.07094,6.02578 -14.12291,2.16847 0.0148,-15.98644 13.89967,2.03822 z"
       id="path5851"
       sodipodi:nodetypes="cccccc" />
    <rect
       style="fill:#0b7506;fill-opacity:0;stroke:#d22d2d;stroke-width:3.90098;stroke-dasharray:none;stroke-opacity:1"
       id="rect5853"
       width="19.895004"
       height="7.9970117"
       x="261.68683"
       y="284.69131" />
    <path
       style="fill:#0b7506;fill-opacity:0;stroke:#d22d2d;stroke-width:5.46137;stroke-dasharray:none;stroke-opacity:1"
       d="m 216.99648,182.11017 c -5.79266,51.03059 -2.48257,65.09848 -2.48257,65.09848 0,0 1.10338,15.17126 11.86117,15.44709 10.7578,0.27586 45.78962,0.27586 45.78962,0.27586"
       id="path5932" />
    <path
       style="fill:#f2f4f3;fill-opacity:0;stroke:#d22d2d;stroke-width:5.46137;stroke-dasharray:none;stroke-opacity:1"
       d="m 327.04358,182.11017 c 5.79267,51.03059 2.48257,65.09848 2.48257,65.09848 0,0 -1.10337,15.17126 -11.86116,15.44709 -10.7578,0.27586 -45.78962,0.27586 -45.78962,0.27586"
       id="path5934" />
    <ellipse
       style="fill:#0b7506;fill-opacity:0;stroke:#d22d2d;stroke-width:6.9199;stroke-dasharray:none;stroke-opacity:1;paint-order:normal"
       id="path13415"
       cx="254.55843"
       cy="203.2932"
       rx="184.42058"
       ry="88.961159"
       clip-path="url(#clipPath14807)"
       transform="matrix(0.78019626,0,0,0.78019626,71.904105,87.49669)" />
    <ellipse
       style="fill:#f2f4f3;fill-opacity:0;stroke:#ff8400;stroke-width:7.0003;stroke-dasharray:none;stroke-opacity:1;paint-order:normal"
       id="path13273"
       cx="305.87305"
       cy="372.87302"
       rx="85.944313"
       ry="143.35265"
       transform="matrix(0.75225436,-0.20692893,0.19703417,0.75490645,71.904105,87.49669)"
       clip-path="url(#clipPath14651)" />
    <ellipse
       style="fill:#0b7506;fill-opacity:0;stroke:#d22d2d;stroke-width:7.0003;stroke-dasharray:none;stroke-opacity:1;paint-order:normal"
       id="ellipse13344"
       cx="-188.83617"
       cy="237.26727"
       rx="85.944313"
       ry="143.35265"
       transform="matrix(-0.75225436,-0.20692893,-0.19703417,0.75490645,71.904105,87.49669)"
       clip-path="url(#clipPath15059)" />
    <path
       style="fill:#f2f4f3;fill-opacity:0;stroke:#ff8400;stroke-width:15.6039;stroke-dasharray:none;stroke-opacity:1"
       d="M 232.75153,447.09104 C 239.48995,434.35365 414.99355,125.02517 414.99355,125.02517"
       id="path1474"
       inkscape:label="Slash" />
  </g>
</svg>
